<svg width="90" height="120" viewBox="0 0 90 120" fill="none" xmlns="http://www.w3.org/2000/svg">
<path fill-rule="evenodd" clip-rule="evenodd" d="M38.46 0.473335C14.924 3.92174 -2.26029 25.6275 0.242098 48.746C1.37703 59.2333 5.14421 67.3328 12.3931 74.8707C18.7925 81.5257 26.7281 86.0457 35.4368 87.9965C40.1608 89.0543 50.85 89.0649 55.213 88.0154C68.6443 84.7858 79.274 76.5109 85.3908 64.5231C86.5205 62.3088 88.0136 58.6744 88.7079 56.4467C89.8611 52.7477 89.9732 51.7153 89.9989 44.5504C90.0308 35.4568 89.3591 32.3342 85.8281 25.1669C77.2554 7.76705 57.8218 -2.36403 38.46 0.473335ZM42.5328 3.78283C38.3165 7.89258 38.8303 11.1605 44.1783 14.2467C50.7577 18.043 51.7782 20.5837 49.6649 27.9046C47.5685 35.1646 50.362 38.6661 60.3781 41.335C68.6893 43.5498 71.8948 45.7452 72.2408 49.4599C72.3955 51.1204 72.3622 51.2303 72.0505 50.0885C71.4584 47.9203 70.6821 46.7536 69.0423 45.5657C67.0823 44.1465 65.6356 43.6213 60.493 42.4606C53.3871 40.8569 49.1535 38.4261 47.2526 34.8586C46.0904 32.678 46.2948 28.8502 47.7504 25.5269C49.9556 20.4927 49.1601 17.8427 44.7492 15.525C40.818 13.4593 39.2701 12.1583 38.9302 10.6349C38.4361 8.42147 39.1224 6.49836 41.1968 4.28311L43.1268 2.222L41.2619 2.98626C38.8908 3.95774 38.3142 4.53694 37.5116 6.75403L36.8605 8.55254L36.8399 6.69404C36.8038 3.439 38.5402 1.94417 42.4198 1.88971L44.505 1.86064L42.5328 3.78283ZM58.5194 3.30655C61.77 4.33618 69.1656 7.83166 69.1656 8.3384C69.1656 8.51839 68.3536 8.79299 67.3607 8.94944C63.9076 9.4931 61.6157 12.2802 61.7287 15.7983C61.7653 16.9285 61.8722 17.2862 61.9772 16.629C62.6072 12.6909 63.5884 11.5524 66.3528 11.5524C69.2204 11.5524 70.2672 12.8317 69.9995 16.0087C69.5434 21.4227 64.7032 24.3773 59.2737 22.5552C56.3522 21.575 53.8118 19.531 53.2029 17.6706C52.4205 15.2786 52.0286 14.8988 49.9964 14.5605C47.3149 14.1147 45.4313 12.7777 44.7905 10.8656C44.1192 8.86267 44.4933 6.41021 45.6184 5.44473C46.7486 4.47417 48.5722 3.5853 48.8572 3.8659C48.988 3.99466 48.4334 4.43679 47.6248 4.84846C45.6465 5.85547 45.0694 7.44768 45.94 9.49771C46.3117 10.3741 46.7721 11.0908 46.9633 11.0908C47.1546 11.0908 48.0964 10.2361 49.0569 9.19127C50.5153 7.6046 50.8571 6.83618 51.129 4.53094L51.4543 1.7711L53.531 2.07755C54.6735 2.246 56.918 2.79935 58.5194 3.30655ZM33.9939 4.28357C33.4965 5.36212 33.0849 6.98248 33.0793 7.88335C33.0657 10.07 32.4244 10.658 30.7367 10.0308C29.5929 9.60571 29.2221 9.70447 27.9263 10.7775C26.2387 12.1754 25.4643 12.3102 24.6523 11.347C23.8896 10.4424 24.2243 8.511 25.1108 8.70068C25.6527 8.81698 25.6804 8.72653 25.2364 8.28209C24.4109 7.45461 23.2244 8.56361 23.2244 10.1623C23.2244 11.7245 24.8591 13.8599 26.0554 13.8599C26.5434 13.8599 27.684 13.5119 28.5892 13.0869C30.1292 12.3642 30.2918 12.3642 31.1033 13.0869C32.3095 14.1617 33.1969 14.0542 34.4045 12.6872C35.5591 11.3793 36.3945 11.5168 36.0134 12.9521C35.6116 14.464 34.1893 14.878 27.9479 15.2984C20.4975 15.8006 17.0167 16.4347 14.3329 17.78C10.0008 19.9514 8.24899 23.175 8.23352 29.0048C8.22274 33.0915 7.66253 34.8693 6.52197 34.4382C6.13335 34.2914 5.95615 34.3768 6.11694 34.633C6.58526 35.3788 8.15617 35.1522 8.63621 34.2693C8.88138 33.8184 9.31173 31.8201 9.59347 29.8291C10.5887 22.7832 12.8286 19.6745 17.599 18.7192L19.2397 18.3906L17.0805 19.7649C14.091 21.6677 12.7742 24.4211 12.8014 28.7113C12.8394 34.6625 16.1752 38.787 21.2391 39.1438C23.471 39.3011 24.1465 39.1632 25.2167 38.3315C25.926 37.7805 26.5059 37.1011 26.5059 36.8214C26.5059 36.5418 25.9668 36.8118 25.3077 37.4214C22.9192 39.6302 19.1736 38.529 17.3753 35.0894C15.7346 31.9507 16.1865 27.0439 18.409 23.8701C21.1922 19.896 22.5025 20.525 25.8074 27.4223C29.4077 34.9371 30.1709 35.2422 32.8974 30.2532L34.3665 27.5649L34.6792 30.2888C35.4733 37.2142 32.5364 47.0328 29.193 48.6269C27.4651 49.4507 25.2908 48.871 24.838 47.4653C24.3795 46.0438 25.2918 45.4319 26.8359 46.1246C28.126 46.7033 28.1265 46.7024 27.2447 45.7429C26.182 44.5868 24.3204 44.4968 23.1442 45.5449C21.9249 46.6313 21.9859 49.5979 23.2455 50.4665C24.0851 51.0457 24.1095 51.1634 23.4414 51.4158C22.3609 51.8238 21.2686 51.7758 18.5459 51.2012C15.6211 50.5837 13.3799 48.8475 13.3799 47.1994C13.3799 44.3819 16.9544 43.2041 18.2684 45.5888C18.9275 46.785 18.9687 46.7984 18.9866 45.8195C19.0311 43.3435 15.4275 42.0965 12.536 43.5881C11.0664 44.3459 8.58042 46.8501 7.78536 48.374C7.31985 49.2661 6.98982 49.3833 5.64534 49.135C4.34399 48.8946 3.84473 49.0496 2.88981 49.9897L1.72347 51.138L1.39438 48.1123C-0.3617 31.9682 8.91279 14.956 23.9974 6.65112C26.3006 5.38289 33.7674 2.39599 34.8039 2.32815C34.8559 2.32492 34.4912 3.20502 33.9939 4.28357ZM72.4471 11.0908C72.9627 11.5985 73.3781 12.3775 73.3706 12.8215C73.357 13.5719 73.3209 13.5696 72.8605 12.7901C72.5877 12.3286 71.6975 11.5505 70.8823 11.0613C69.5518 10.2624 69.5082 10.1711 70.4547 10.1697C71.0351 10.1687 71.9314 10.5832 72.4471 11.0908ZM42.2103 16.2976C43.4995 16.9326 44.9714 17.9064 45.481 18.4621C46.8644 19.9685 46.7069 22.6102 45.1196 24.5305C40.353 30.2975 40.2123 31.6604 43.8557 36.7979C45.6268 39.2947 46.3872 40.8389 46.5513 42.271C46.7702 44.1825 46.6745 44.3681 44.2603 46.7181C42.875 48.0666 38.5106 51.3184 34.5616 53.944C25.5679 59.9228 22.1931 62.678 20.6147 65.3294C18.4953 68.8895 19.3166 70.6516 24.6308 73.9454L27.2091 75.5431V70.8925C27.2091 66.6244 27.3211 66.0429 28.5672 63.8286C29.7026 61.8118 32.2542 58.7829 31.589 60.2417C31.4737 60.4956 30.9997 61.5243 30.537 62.528C27.7351 68.6006 28.7819 76.0831 33.2354 81.8173C34.172 83.0228 34.795 84.0095 34.6206 84.0095C34.4458 84.0095 32.6016 82.2945 30.5215 80.1988C28.2587 77.9185 25.3761 75.5939 23.3435 74.4101C19.7469 72.3162 18.5365 70.7835 18.5365 68.3228C18.5365 64.5051 22.0876 60.9649 33.4927 53.4128C41.6656 48.0006 45.0282 45.1489 45.5223 43.2101C45.8617 41.8801 45.0024 40.0428 42.2909 36.2999C39.3249 32.2059 39.3568 28.3758 42.3884 24.5997C45.8936 20.2343 45.9545 19.0694 42.7621 17.4915C40.187 16.2187 37.7568 14.405 37.7568 13.7561C37.7568 13.4709 38.2317 13.6661 38.8116 14.1899C39.3915 14.7142 40.9211 15.6621 42.2103 16.2976ZM76.3324 16.173C80.4076 19.3288 75.8523 25.6206 68.5135 26.9737L66.6894 27.3097L68.4061 28.703C70.4379 30.3515 71.5254 32.2437 71.4673 34.0279C71.427 35.2532 71.4012 35.2366 70.9624 33.7049C70.2353 31.1652 67.9073 29.141 63.1885 26.946C58.6375 24.8291 57.6507 24.1613 60.6102 25.2011C64.7036 26.6391 69.8955 25.3709 73.6636 22.012C75.947 19.9768 76.4688 18.2941 75.2612 16.8611C74.5046 15.9639 72.7279 15.9709 71.9666 16.8736C71.4973 17.4306 71.4903 17.8363 71.9352 18.7972C72.4363 19.8799 72.418 19.9486 71.7697 19.4193C70.7154 18.5576 70.8748 16.7956 72.0828 15.963C73.4929 14.9902 74.8946 15.0598 76.3324 16.173ZM37.4863 16.6091C39.961 17.1745 41.7096 18.5327 41.891 20.0308C41.9984 20.9196 41.441 22.0485 39.8945 24.0741C38.7141 25.6197 37.619 27.3928 37.4605 28.0144C36.9688 29.9431 37.5543 32.8714 39.1444 36.4342C41.8939 42.5968 40.6103 46.9982 35.2666 49.7299C33.3 50.7355 32.1867 50.9774 29.4499 50.9926C26.4525 51.0092 25.9434 50.8828 24.9964 49.8845C24.4086 49.2652 24.2764 49.0141 24.7025 49.327C27.3619 51.281 31.4947 50.7014 34.6989 47.9245C38.9189 44.2679 39.7187 40.6289 37.5482 34.9634C36.2693 31.6258 36.0068 28.2793 36.8956 26.6364C37.1957 26.0821 38.2739 24.5407 39.2921 23.211C42.3373 19.2328 40.9891 17.5783 33.9995 16.7185C30.514 16.2893 30.5079 16.2861 33.0689 16.2381C34.487 16.2113 36.4747 16.3784 37.4863 16.6091ZM33.7182 19.2827C33.0122 22.21 31.1783 27.5497 30.6219 28.2978C30.086 29.0173 29.7073 28.6426 27.0919 24.8069C25.4807 22.4435 24.162 20.1683 24.162 19.7506C24.162 18.8101 26.9419 18.1326 31.0855 18.0629L34.0243 18.0135L33.7182 19.2827ZM79.9505 22.6217C79.6251 23.3956 78.2033 25.0682 76.7913 26.3387C73.8713 28.9661 73.9045 29.1918 77.5128 31.2736C79.725 32.5502 83.4884 32.9531 85.3387 32.1122C86.175 31.7319 86.2069 31.7698 85.6345 32.4625C83.5114 35.0322 77.8953 34.2144 74.0344 30.7729L71.7805 28.7639L73.6373 27.8991C75.8894 26.8496 79.3762 23.4233 79.7719 21.8699C79.9308 21.2482 80.1689 20.8463 80.3016 20.9769C80.4343 21.1075 80.2763 21.8477 79.9505 22.6217ZM84.6276 25.5292C84.6318 25.7286 84.2277 25.6769 83.7289 25.4138C82.6488 24.8448 82.2916 24.8139 82.2916 25.2883C82.2916 25.4817 82.766 25.8453 83.3464 26.0959C83.9839 26.371 84.4584 27.036 84.5451 27.7758C84.8259 30.1651 80.9096 31.4213 79.0101 29.5513C77.8086 28.3684 77.8142 28.3241 79.4803 25.8592C80.2519 24.7169 81.1196 23.0827 81.408 22.2276L81.9321 20.6732L83.2761 22.9198C84.0149 24.1558 84.6234 25.3298 84.6276 25.5292ZM17.455 22.0688C16.0093 23.6412 15.1303 26.5085 15.0938 29.7714C15.0539 33.3223 14.4435 32.2571 14.3643 28.4981C14.2987 25.3944 16.2324 21.2441 17.7443 21.2441C18.0021 21.2441 17.8718 21.6151 17.455 22.0688ZM61.59 28.2129C62.6972 28.2784 60.305 28.9873 58.7861 29.0436C57.7604 29.0819 57.4182 28.7709 56.7938 27.2345C55.6457 24.4096 55.8412 24.2988 58.4256 26.3101C59.7378 27.3314 61.162 28.1875 61.59 28.2129ZM54.6571 29.6666C55.8061 32.7749 56.1211 32.858 60.3486 31.1666C61.935 30.532 63.8392 30.0128 64.5799 30.0128C66.3322 30.0128 68.0208 31.6959 68.6776 34.0962C69.6259 37.5636 68.0559 40.0437 66.2797 37.8843C65.614 37.0753 65.4153 37.0042 65.4153 37.5765C65.4153 38.596 67.0082 40.0788 68.4999 40.4471C71.2142 41.1181 74.791 37.7242 74.791 34.4784V33.3689L76.9798 34.4599C78.5465 35.2408 79.9566 35.5509 81.9381 35.5509C84.3726 35.5509 84.8732 35.388 86.0747 34.2051C86.8267 33.4649 87.5303 33.0006 87.6386 33.1732C87.8805 33.5586 88.6756 38.158 89.0661 41.4324C89.3525 43.8313 89.3455 43.8484 88.271 43.3661C86.5777 42.6069 84.7246 43.5355 83.8574 45.5786C83.2179 47.0859 83.1973 48.0085 83.6952 52.8502C84.0083 55.9003 84.1902 59.5379 84.0988 60.934L83.9324 63.4723L83.105 60.2417C80.4062 49.7064 74.6752 43.6426 63.6723 39.6787C53.4903 36.0101 51.5476 34.5 51.6376 30.3238C51.6657 29.0104 51.9522 27.3129 52.2742 26.5515C52.9441 24.9675 52.8972 24.9062 54.6571 29.6666ZM49.0386 39.8199C50.6892 42.0633 50.8669 44.7368 49.5102 46.9267C49.0152 47.7265 46.9554 49.7442 44.933 51.4107C40.6094 54.9736 38.3339 57.7703 36.3322 61.9816C33.1092 68.7621 34.3004 77.3328 39.2349 82.8659C42.7091 86.761 49.0077 87.7593 49.0077 84.4147C49.0077 83.4266 47.3721 83.1973 46.9455 84.1249C46.7997 84.4424 46.7313 84.2864 46.7941 83.7788C46.9282 82.6919 48.726 82.2816 49.7367 83.1077C50.8191 83.992 50.5364 85.6931 49.1249 86.7924C48.0645 87.6181 47.4377 87.7501 45.5921 87.5378C37.5838 86.6161 30.8558 76.9683 31.829 67.8013C32.5087 61.3992 35.5015 56.8159 42.507 51.4476C48.3176 46.995 49.656 45.2939 49.3227 42.7865C49.1933 41.8168 48.5234 40.1836 47.8334 39.1572C46.248 36.7979 47.2005 37.3217 49.0386 39.8199ZM88.7838 45.4429C88.8785 45.934 88.5645 46.6369 88.0854 47.0047C87.3151 47.5963 87.3095 47.642 88.0343 47.396C88.7013 47.1699 88.8546 47.3882 88.8546 48.565C88.8546 50.8828 87.8402 55.9704 87.4619 55.5495C86.9406 54.9694 85.8591 45.916 86.2051 45.0285C86.6148 43.9767 88.5602 44.2892 88.7838 45.4429ZM63.9461 50.088C68.6279 51.9987 70.3118 53.3071 70.7285 55.3599C71.3787 58.5604 68.7657 62.2534 65.1443 63.2517C63.444 63.7201 62.723 63.6994 60.9707 63.1317C58.5653 62.3522 58.337 62.6042 60.0308 64.1706C61.7348 65.7466 65.9553 66.0028 68.5711 64.6893C72.8334 62.5483 74.9959 58.1442 74.7198 52.1653C74.558 48.6523 74.5805 48.5604 75.4234 49.3113C77.7083 51.3466 79.4869 56.1209 80.1835 62.0878C80.6359 65.9626 80.1713 65.137 79.0485 60.0719C78.524 57.7066 77.57 54.7008 76.9282 53.3915L75.7619 51.0115L76.0966 52.8576C77.0539 58.1303 76.0272 61.941 72.8399 64.9487C69.7773 67.8386 64.9333 68.7695 61.4432 67.1395C59.486 66.2252 58.5311 65.0068 58.0975 62.8714L57.7975 61.396L59.7903 62.0878C63.6817 63.4395 66.7944 62.5137 68.6991 59.4382C70.9254 55.844 69.3409 53.1894 63.7061 51.0724C60.4081 49.8333 57.5804 47.6923 56.4464 45.5754C56.1361 44.9957 56.7136 45.3732 57.7759 46.4435C59.1002 47.7782 60.9196 48.853 63.9461 50.088ZM56.1787 49.2107C57.2195 50.3511 59.5057 51.9544 61.6818 53.0689C66.8165 55.6986 67.5923 57.6143 64.3188 59.5795C62.5243 60.6566 60.8226 60.7175 59.4256 59.7539C58.1237 58.8563 58.0942 57.6425 59.3473 56.5261C60.1634 55.7988 60.4574 55.7577 61.2679 56.2561C62.6513 57.1062 62.9035 56.5344 61.5346 55.6511C58.3558 53.6006 54.7138 58.8106 56.0475 63.5C58.2845 71.366 69.4234 73.176 75.2678 66.6235C76.0689 65.7254 76.856 65.1208 77.0173 65.2796C77.1785 65.4383 77.3107 66.8662 77.3107 68.4525C77.3107 70.7595 77.0398 71.827 75.9564 73.7866C74.4071 76.5884 72.8863 77.5484 69.9963 77.5484C67.5318 77.5484 65.7734 76.4694 65.9745 75.0807C66.0959 74.2416 66.4077 74.0967 67.9772 74.1484L69.8359 74.2098L68.7455 73.3408C67.4067 72.2738 65.5132 72.2248 64.0694 73.2203C63.1904 73.8263 63.0216 74.2878 63.1824 75.6432C63.2921 76.564 63.4698 77.6217 63.5781 77.9933C63.7318 78.5217 63.0226 78.7465 60.321 79.0247C57.2659 79.339 56.7146 79.273 55.5449 78.4534C53.7129 77.169 51.8832 73.2517 51.1032 68.9449C50.227 64.1046 50.2345 55.4037 51.1172 52.1653C51.4979 50.7692 51.812 49.1239 51.8148 48.5097C51.8181 47.8949 52.1875 46.9927 52.6361 46.5049C53.411 45.6621 53.4753 45.6589 53.9253 46.4384C54.1855 46.8898 55.1999 48.1372 56.1787 49.2107ZM12.6664 50.3082C13.1084 50.7891 14.452 51.6613 15.6516 52.247C17.584 53.1898 18.5164 53.3121 23.8024 53.3154C30.0495 53.3191 29.996 53.8037 23.6932 54.3081C19.4563 54.6468 15.4707 53.9195 13.1811 52.39L11.5286 51.2861L10.9937 53.2258C10.4204 55.3031 10.6956 60.9335 11.463 62.8225L11.914 63.9338L11.944 62.8336C11.9983 60.8066 13.0742 58.0906 14.3587 56.737C16.5948 54.3801 20.414 55.2362 21.1397 58.2572C21.3708 59.2195 21.1669 59.771 20.2434 60.6802C18.9097 61.9927 18.1592 62.1307 16.9759 61.2801C16.2817 60.7808 16.412 60.7032 17.9412 60.7032C19.6377 60.7032 19.7085 60.6405 19.7085 59.1382C19.7085 57.0398 18.5389 56.288 16.7744 57.2511C13.7394 58.9084 12.8328 65.0248 14.963 69.4719C16.2488 72.1556 17.3153 73.1945 20.9597 75.3119C23.4457 76.7564 32.5739 84.9325 31.7005 84.9325C31.4812 84.9325 29.5371 83.3602 27.3802 81.4384C25.2233 79.5167 21.9826 77.1805 20.1787 76.2464C14.9512 73.5406 11.3814 69.3667 9.16875 63.3735C7.64472 59.2458 7.93162 53.1202 9.83443 49.1655L11.1667 46.3964L11.515 47.9152C11.7063 48.7506 12.2248 49.8273 12.6664 50.3082ZM4.91497 52.1159C5.17609 52.5968 5.60315 54.8416 5.86333 57.1044C6.39821 61.7518 7.58003 65.5066 9.63894 69.0976C10.4115 70.4457 10.9665 71.5487 10.8719 71.5487C10.5062 71.5487 7.28704 66.4518 5.73957 63.4225C4.84606 61.6729 3.68206 58.8193 3.15374 57.0808C2.22601 54.0316 2.22319 53.9278 3.07029 54.1461C3.80676 54.3358 3.86536 54.2412 3.43314 53.5604C2.87762 52.6845 3.21327 51.2423 3.97271 51.2423C4.2296 51.2423 4.65386 51.6355 4.91497 52.1159ZM46.3014 55.52C45.4609 58.9795 45.6779 60.7023 47.5943 65.7798C48.6322 68.53 48.7138 72.1381 47.8062 75.1301C47.5441 75.9926 47.7242 76.2543 48.8441 76.6383C49.5895 76.8939 50.4464 77.4934 50.7492 77.9706C51.2766 78.8023 51.2002 78.8143 48.8643 78.2646C36.1686 75.2777 34.3126 66.785 43.8843 55.4752C45.4585 53.6149 46.8171 52.1621 46.9028 52.247C46.9891 52.3319 46.7186 53.8046 46.3014 55.52ZM66.1499 77.4902C66.8549 78.0362 68.2707 78.6149 69.2964 78.7764L71.1617 79.07L70.0464 79.9261C66.8559 82.3748 59.3492 85.6954 55.2801 86.4574C53.8395 86.7273 53.8179 86.7043 53.8648 84.9371C53.9825 80.5159 47.8573 78.7455 45.864 82.625C45.4135 83.5019 45.2696 83.5798 45.2644 82.9503C45.2452 80.6368 49.5909 78.7557 52.3525 79.8818C53.9595 80.5371 55.566 82.7597 55.5689 84.3307C55.5707 85.3368 55.5885 85.3391 58.0281 84.6256C62.2552 83.3902 69.7211 79.3944 67.8033 79.3944C66.8226 79.3944 64.0094 76.5137 64.0384 75.5389L64.0684 74.5485L64.4683 75.5233C64.6882 76.0591 65.4453 76.9442 66.1499 77.4902ZM19.8993 102.621C18.7629 103.211 17.2005 104.579 16.427 105.66C15.1964 107.38 15.0206 108.021 15.0206 110.777C15.0206 113.542 15.195 114.172 16.4467 115.925C18.432 118.707 20.9058 119.99 24.2979 120C33.1927 120.024 37.6026 109.84 31.1732 104.122C28.8072 102.017 27.5771 101.547 24.4395 101.547C22.7542 101.547 21.3071 101.889 19.8993 102.621ZM30.0514 103.875C31.8726 105.551 32.6001 107.23 32.6001 109.759C32.6001 112.563 31.1099 115.489 28.7073 117.404C26.5078 119.156 22.3881 119.637 19.9973 118.42C15.5358 116.149 15.1828 109.079 19.3367 105.181C21.9662 102.714 22.6872 102.43 25.9049 102.594C28.225 102.712 29.0711 102.974 30.0514 103.875ZM35.4129 111.008C35.4129 118.831 35.4813 119.546 36.2332 119.546C36.9838 119.546 37.0536 118.849 37.0536 111.354V103.162L38.3995 103.011C41.3824 102.675 43.3823 103.953 43.3823 106.195C43.3823 107.851 41.9126 109.393 40.3351 109.393C39.6906 109.393 39.1632 109.55 39.1632 109.743C39.1632 109.935 40.3764 111.876 41.8587 114.055C43.341 116.234 44.7703 118.385 45.0347 118.835C45.2991 119.285 45.8889 119.577 46.3459 119.484C47.0285 119.345 46.5817 118.47 43.8449 114.585C41.7209 111.569 40.765 109.854 41.2085 109.854C41.591 109.854 42.553 109.316 43.3462 108.659C45.2569 107.076 45.3465 104.815 43.5534 103.427C42.5577 102.655 41.6487 102.47 38.8655 102.47H35.4129V111.008ZM48.0701 111.008C48.0701 118.29 48.1737 119.546 48.7733 119.546C49.3729 119.546 49.4765 118.29 49.4765 111.008C49.4765 103.726 49.3729 102.47 48.7733 102.47C48.1737 102.47 48.0701 103.726 48.0701 111.008ZM52.758 111.008V119.546H55.1648C58.5147 119.546 61.0504 118.696 62.3958 117.122C64.5415 114.611 63.4909 111.356 60.1672 110.215L58.7904 109.742L60.215 108.89C60.9988 108.421 61.77 107.526 61.9289 106.902C62.67 103.995 60.5713 102.47 55.8286 102.47H52.758V111.008ZM64.9465 111.008V119.546H70.1031C72.9393 119.546 75.2598 119.366 75.2598 119.146C75.2598 118.926 73.8178 118.848 72.0547 118.972C67.1263 119.319 66.8216 119.026 66.8216 113.936V109.743L69.6344 109.944C71.1814 110.053 72.4471 109.975 72.4471 109.768C72.4471 109.562 71.1814 109.393 69.6344 109.393H66.8216V106.112V102.83L70.3375 103.005C72.2713 103.101 73.8534 103.021 73.8534 102.825C73.8534 102.63 71.8494 102.47 69.4 102.47H64.9465V111.008ZM59.2165 103.65C59.9431 104.151 60.2586 104.84 60.2586 105.924C60.2586 107.962 58.4922 109.393 55.9762 109.393H54.1644V106.47C54.1644 104.862 54.305 103.408 54.4771 103.239C55.0644 102.661 58.173 102.93 59.2165 103.65ZM59.7898 110.913C61.5304 111.78 62.2055 113.482 61.627 115.545C60.988 117.823 59.5109 118.713 56.6663 118.534L54.3988 118.392L54.2633 114.354L54.1278 110.316L56.3728 110.323C57.6076 110.326 59.1452 110.592 59.7898 110.913Z" fill="white"/>
</svg>
