<svg width="190" height="98" viewBox="0 0 190 98" fill="none" xmlns="http://www.w3.org/2000/svg">
<path fill-rule="evenodd" clip-rule="evenodd" d="M86.3323 0.228599C84.1896 0.57981 80.4196 1.78129 78.7837 2.63467L77.7275 3.18565L80.3493 3.33734C86.749 3.70778 92.4967 5.52706 97.1896 8.66777L98.8244 9.76203L102.821 9.84496C106.263 9.9166 107.094 10.0125 108.821 10.5387C109.923 10.8748 110.863 11.1871 110.908 11.2327C110.954 11.2784 108.896 11.3159 106.335 11.3159C103.774 11.3159 101.597 11.3977 101.496 11.4977C101.396 11.5977 101.793 12.0744 102.379 12.5571C104.422 14.24 107.879 17.8959 109.535 20.1267C112.431 24.0254 114.497 28.0849 115.512 31.8694C115.742 32.7288 116.005 33.5187 116.095 33.6249C116.186 33.7309 116.452 32.8655 116.686 31.7018C117.238 28.9633 117.248 24.5223 116.709 21.6835C114.709 11.1457 106.459 2.70222 95.9788 0.467788C93.6112 -0.0370336 88.6973 -0.158912 86.3323 0.228599ZM76.7532 4.89675C75.6535 6.10953 73.7372 11.4277 73.2075 14.7372C72.8371 17.0509 72.9074 22.2895 73.3422 24.7778C73.8793 27.8515 75.165 31.502 76.8703 34.7952C78.573 38.0825 79.0335 38.6491 78.7459 37.1022C78.2752 34.5709 78.2165 30.5549 78.6113 27.8738C79.8551 19.4219 84.4278 13.6665 91.7628 11.32C92.4914 11.0868 93.1759 10.8159 93.2838 10.7178C93.5928 10.437 90.4607 8.33387 87.5058 6.83767C84.4372 5.28402 81.4397 4.46477 78.8239 4.46477C77.5139 4.46477 77.0587 4.55973 76.7532 4.89675ZM72.9575 6.48213C68.9635 9.9142 65.9176 14.8977 64.5317 20.2676C63.897 22.7275 63.6619 27.5433 64.048 30.1787C65.13 37.564 69.0873 44.0918 75.0137 48.2674C76.5186 49.3278 79.6997 51.1007 80.0974 51.1007C80.1793 51.1007 79.7756 50.5511 79.2001 49.8797C75.5041 45.5654 72.3691 40.2749 70.9497 35.956C67.9086 26.7024 68.9158 16.2261 73.7174 7.16917C74.3656 5.9463 74.8622 4.94555 74.8208 4.94555C74.7796 4.94555 73.9409 5.63716 72.9575 6.48213ZM94.4118 13.5681C92.138 14.2946 89.5536 15.8115 87.8367 17.4274C85.9522 19.2012 84.534 21.7943 84.0374 24.374C83.6127 26.5803 83.8888 30.9412 84.6465 33.9961C85.8296 38.7667 88.8315 45.42 92.0925 50.4997L93.6357 52.9036L94.6864 52.8368C95.2642 52.8002 96.4957 52.5639 97.423 52.3117C101.74 51.1381 105.498 49.0181 108.902 45.8354L111.062 43.8151L110.913 42.2295C109.97 32.2215 106.666 24.4619 100.064 16.7524C97.8467 14.1629 96.6795 13.1071 96.0612 13.1318C95.883 13.1388 95.1406 13.3352 94.4118 13.5681ZM13.7236 79.031C9.02075 85.529 4.00914 92.4503 2.58661 94.4112L0 97.9769H1.66965H3.33907L7.74852 91.8472L12.158 85.7172H17.1518L22.1456 85.717L22.2099 91.7868L22.2742 97.8567L23.7812 97.9284L25.2886 98L25.2264 82.6635L25.1645 67.327L23.7193 67.2715L22.2742 67.2162L13.7236 79.031ZM150.533 79.8416C150.533 87.9317 150.449 92.4246 150.3 92.3323C150.171 92.2532 145.341 86.6216 139.565 79.8178L129.063 67.4473H127.755H126.447V82.5919V97.7365H128.01H129.574L129.636 85.1984L129.699 72.6606L133.466 77.0852C135.537 79.519 140.338 85.1612 144.132 89.6233L151.032 97.7365H152.385H153.738L153.582 95.0321C153.496 93.5448 153.425 86.6757 153.425 79.7673L153.423 67.2069H151.978H150.533V79.8416ZM157.759 82.4717V97.7365H159.325H160.89V91.7268V85.717H165.901H170.911L175.234 91.7123L179.557 97.7079L181.203 97.7221C182.108 97.73 182.813 97.6409 182.768 97.5238C182.724 97.4067 177.756 90.5419 171.729 82.2688L160.77 67.2266L159.264 67.2167L157.759 67.2069V82.4717ZM29.3796 82.7121V97.9769L38.9538 97.9675L48.5281 97.9582L49.3711 96.8312C49.8348 96.2115 50.2503 95.6206 50.2943 95.5184C50.3387 95.4163 46.3553 95.3326 41.4427 95.3326H32.5108V81.3899V67.4473H30.9452H29.3796V82.7121ZM44.2439 68.643C43.7521 69.3007 43.3496 69.8956 43.3496 69.9651C43.3496 70.0346 46.0051 70.0916 49.2507 70.0916H55.1518V84.0458V97.9998L56.6572 97.9284L58.1626 97.8567L58.0648 83.9741L57.9672 70.0916H63.1318H68.2963L69.1909 68.8958C69.6827 68.2381 70.0852 67.6432 70.0852 67.5737C70.0852 67.5042 64.4722 67.4473 57.6117 67.4473H45.1385L44.2439 68.643ZM73.2673 77.123C73.301 82.4445 73.3614 89.2599 73.4017 92.2676L73.4749 97.7365H83.4388H93.4026L94.2502 96.5947L95.0978 95.4528L85.7227 95.3898L76.3476 95.3271V89.8007V84.2746H84.4856H92.6234L93.5179 83.0789C94.0098 82.4212 94.4123 81.8262 94.4123 81.7568C94.4123 81.6873 90.3477 81.6303 85.3799 81.6303H76.3476V75.8609V70.0916H84.6061H92.8642L93.7588 68.8958C94.2506 68.2381 94.6531 67.6432 94.6531 67.5737C94.6531 67.5042 89.8277 67.4473 83.9297 67.4473H73.2063L73.2673 77.123ZM99.2295 82.5775V97.7365H100.795H102.361V90.9849V84.2333L106.275 84.316C110.858 84.4128 111.184 84.5273 112.851 86.6256C113.452 87.3819 115.321 90.1911 117.004 92.8684L120.064 97.736L121.838 97.7363L123.612 97.7365L123.257 97.1956C123.062 96.898 121.357 94.2451 119.469 91.3001C117.266 87.8649 115.564 85.4862 114.721 84.6648L113.407 83.384L114.647 83.2373C117.398 82.9123 119.79 81.1671 121.08 78.5437C121.65 77.3848 121.748 76.8946 121.736 75.2366C121.725 73.6188 121.611 73.0625 121.06 71.9399C120.25 70.2863 118.663 68.8478 116.848 68.1199C115.544 67.597 115.152 67.5713 107.359 67.4963L99.2295 67.4182V82.5775ZM115.976 70.8127C117.157 71.4043 117.853 71.9399 118.322 72.6171C119.133 73.7878 119.412 75.6357 118.978 76.9494C118.552 78.2372 116.963 79.8603 115.256 80.7512L113.802 81.5101L108.081 81.5859L102.361 81.6618V75.735V69.8081L108.329 69.8896L114.296 69.9714L115.976 70.8127ZM164.864 77.342C166.984 80.2678 168.754 82.7542 168.798 82.8671C168.843 82.9801 167.081 83.0727 164.884 83.0727H160.89L160.889 80.2481C160.888 78.6947 160.818 76.2066 160.732 74.7191C160.642 73.1546 160.667 72.0164 160.793 72.0185C160.913 72.0207 162.745 74.4162 164.864 77.342ZM22.1537 77.6639V83.0727H18.1795C15.9937 83.0727 14.2053 83.0092 14.2053 82.9316C14.2053 82.7505 21.9213 72.2551 22.0543 72.2551C22.1089 72.2551 22.1537 74.689 22.1537 77.6639ZM185.543 92.6705C184.672 93.2006 184.139 94.5025 184.367 95.5401C184.45 95.9177 184.845 96.5394 185.245 96.9214C185.848 97.4988 186.176 97.6163 187.178 97.6163C188.265 97.6163 188.468 97.5264 189.21 96.7185C190.412 95.4091 190.222 93.5924 188.778 92.5828C188.044 92.0698 186.46 92.1128 185.543 92.6705ZM188.384 92.9479C189.145 93.3544 189.576 94.6251 189.297 95.636C188.849 97.256 187.054 97.756 185.717 96.6334C185.094 96.1098 184.976 95.8408 184.976 94.9398C184.976 94.1227 185.117 93.7282 185.568 93.2785C186.212 92.6352 187.513 92.4825 188.384 92.9479ZM186.181 94.9583C186.181 95.849 186.285 96.5346 186.421 96.5346C186.554 96.5346 186.662 96.21 186.662 95.8134C186.662 95.4168 186.765 95.0922 186.889 95.0922C187.014 95.0922 187.309 95.4168 187.544 95.8134C187.778 96.21 188.055 96.5346 188.16 96.5346C188.447 96.5346 188.386 96.2149 187.99 95.6509C187.672 95.1975 187.674 95.1252 188.007 94.9977C188.249 94.905 188.354 94.622 188.304 94.1922C188.236 93.5989 188.121 93.522 187.204 93.4559L186.181 93.3818V94.9583ZM187.789 94.0348C187.939 94.4242 187.515 94.8415 186.963 94.8482C186.798 94.8502 186.662 94.5814 186.662 94.2509C186.662 93.8071 186.79 93.6499 187.152 93.6499C187.421 93.6499 187.707 93.823 187.789 94.0348Z" fill="white"/>
</svg>
