<svg width="110" height="108" viewBox="0 0 110 108" fill="none" xmlns="http://www.w3.org/2000/svg">
<path fill-rule="evenodd" clip-rule="evenodd" d="M54.2971 0.129358C54.2971 0.200852 54.3645 0.319681 54.4469 0.393499C54.5778 0.510708 54.76 0.533811 55.89 0.575933C56.6012 0.602488 57.3595 0.655668 57.5751 0.694057C57.7906 0.732516 58.1675 0.766256 58.4124 0.769073L58.8578 0.774215V0.431817V0.0894904L58.4836 0.0450442C58.2778 0.0206023 57.2517 0.000316242 56.2033 3.4491e-05C54.3978 -0.000599448 54.2971 0.00623301 54.2971 0.129358ZM48.1124 0.248609C48.0618 0.305241 47.9598 0.351589 47.8856 0.351589C47.7036 0.351589 47.6394 0.587344 47.7566 0.825916C47.8344 0.984471 47.8916 1.01638 48.0639 0.997432C48.1802 0.984612 48.5802 0.958762 48.9525 0.939955C49.3248 0.921148 49.66 0.876138 49.6972 0.840004C49.7344 0.803799 50.0127 0.774215 50.3156 0.774215C50.9365 0.774215 51.0903 0.689267 51.0903 0.346588V0.140276L49.6473 0.142953C48.4732 0.145136 48.1871 0.164859 48.1124 0.248609ZM45.8883 0.584315C45.8883 0.634819 45.994 0.777455 46.1233 0.901285C46.3016 1.0721 46.4219 1.1264 46.6221 1.1264H46.8859V0.809434V0.492464H46.3871C46.0246 0.492464 45.8883 0.51754 45.8883 0.584315ZM41.9764 1.37301C41.3246 1.51733 40.7076 1.72815 39.6799 2.15761C38.8517 2.50374 38.0248 2.73548 36.8381 2.95405C36.5834 3.00096 36.1665 3.14515 35.9117 3.2744C35.657 3.40372 35.2401 3.56108 34.9854 3.62412C34.7306 3.68724 34.3137 3.8484 34.059 3.98223C33.8042 4.11613 33.0506 4.4991 32.3843 4.83326C29.964 6.04725 27.9291 7.2499 26.0163 8.59681C25.1702 9.1925 24.8696 9.36761 24.693 9.36761C24.2692 9.36761 22.7411 10.4685 21.2676 11.8353C20.7973 12.2716 20.0597 12.913 19.6286 13.2608C19.1906 13.6141 18.7877 14.0004 18.7154 14.1365C18.6168 14.3221 18.4707 14.4329 18.0998 14.6032C17.6421 14.8134 17.5977 14.8551 17.3463 15.3109C17.1993 15.5773 16.9937 15.8437 16.8894 15.9028C16.7793 15.9653 16.6441 16.1465 16.5678 16.3342C16.4899 16.5253 16.2141 16.8923 15.8944 17.2301C15.5966 17.5449 15.1766 18.0803 14.961 18.42C14.5176 19.1189 14.1213 19.4551 13.5766 19.5946L13.2255 19.6845L12.7394 20.6717C12.4282 21.3036 12.0839 21.8745 11.7827 22.2577C11.349 22.8095 11.0966 23.2058 10.2568 24.6526C9.54299 25.8825 8.21569 27.3475 7.19366 28.0335C6.8861 28.24 6.718 28.4143 6.5965 28.6527C6.36504 29.1069 6.08719 29.8891 5.98686 30.3692C5.9042 30.7643 5.89864 30.7709 5.33211 31.1385C4.88395 31.4293 4.72497 31.5789 4.59528 31.8319C4.20933 32.5848 3.52786 34.3752 3.134 35.6713L2.85722 36.5821L3.13699 37.086C3.29085 37.3631 3.41676 37.6377 3.41676 37.6961C3.41676 37.8623 2.74969 38.7595 2.46864 38.9714C2.25984 39.1288 2.20105 39.2332 2.13257 39.5675C2.08696 39.7904 1.91009 40.5909 1.73964 41.3463C1.34336 43.1018 0.990257 44.9277 0.677208 46.8405C-0.108087 51.6384 -0.171011 53.3829 0.285914 57.6879C1.68662 70.8829 5.68236 81.0205 12.6681 89.1028C14.6473 91.3926 19.2031 95.6686 22.18 98.0306C23.8779 99.3777 25.8479 100.69 27.804 101.776C28.2851 102.043 28.8347 102.359 29.0253 102.479C29.3041 102.655 29.448 102.698 29.7613 102.698C30.1212 102.698 30.1722 102.676 30.433 102.416C30.5994 102.25 30.7825 102.134 30.879 102.134C31.1256 102.134 33.0798 102.957 33.2131 103.116C33.277 103.193 33.3523 103.439 33.3804 103.663C33.4949 104.576 33.7598 104.828 35.0383 105.238C35.7169 105.456 36.106 105.539 36.5731 105.566C37.0771 105.596 37.2121 105.627 37.2671 105.729C37.4011 105.976 37.8867 106.08 39.2254 106.145C40.2516 106.195 40.7004 106.252 41.4701 106.428C42.7523 106.723 43.1673 106.824 43.9286 107.027C44.3782 107.147 44.7644 107.199 45.2204 107.202C45.6327 107.204 45.9656 107.245 46.1296 107.312C46.2718 107.371 46.7808 107.517 47.2606 107.637C48.1669 107.863 49.6189 108.005 50.9834 108C51.729 107.997 52.3189 107.822 52.3623 107.591C52.4383 107.186 52.6543 107.187 53.0537 107.593C53.3542 107.899 53.3805 107.91 53.7893 107.91C54.1716 107.91 54.2305 107.889 54.3909 107.701C54.4888 107.586 54.5911 107.361 54.6184 107.201L54.6681 106.911L54.9993 106.955C55.915 107.078 56.1483 107.08 56.1929 106.965C56.2309 106.867 56.4477 106.853 57.9242 106.853H59.612L59.9297 107.176L60.2473 107.498L60.7818 107.452C61.3708 107.4 62.0804 107.392 62.7517 107.428C63.0925 107.447 63.2199 107.425 63.3273 107.329C63.4393 107.229 63.5993 107.206 64.1777 107.206C64.8455 107.206 64.9006 107.194 65.0575 107.029C65.2077 106.871 65.2806 106.853 65.7711 106.853C66.3568 106.853 67.2218 106.667 67.6705 106.445C67.8207 106.371 68.1635 106.29 68.4324 106.266C69.0234 106.214 69.3255 106.056 69.4993 105.707C69.629 105.446 69.633 105.445 70.0694 105.445C70.4243 105.445 70.6462 105.388 71.2215 105.151C71.6135 104.989 72.0388 104.767 72.1667 104.659C72.5062 104.37 72.734 104.27 73.4949 104.075C74.1694 103.901 74.4732 103.78 74.8202 103.543C74.9182 103.477 75.1427 103.4 75.319 103.373C75.4954 103.347 75.8 103.235 75.996 103.127C76.5057 102.843 77.3987 102.465 78.0944 102.237C78.4242 102.129 78.8853 101.915 79.119 101.761C79.554 101.475 80.2051 101.163 80.682 101.011C80.8292 100.964 80.9825 100.865 81.0225 100.791C81.1063 100.636 81.4502 100.444 81.6426 100.444C81.7146 100.444 81.9306 100.286 82.1226 100.093C82.3941 99.8207 82.5756 99.7098 82.9394 99.5937C83.7139 99.3467 84.1315 99.1216 84.2815 98.8704C84.4572 98.576 84.6149 98.4576 85.8657 97.6811C86.434 97.3283 87.064 96.9194 87.2656 96.7725C87.4674 96.6256 87.7159 96.4846 87.8179 96.4594C87.92 96.434 88.0035 96.3903 88.0035 96.3622C88.0035 96.2341 88.5495 95.7909 88.8141 95.7042C89.1719 95.587 89.525 95.1572 89.9104 94.3695C90.139 93.9025 90.2153 93.8096 90.4456 93.718C90.5934 93.6592 90.7589 93.6111 90.8134 93.6111C90.868 93.6111 91.0658 93.3971 91.2531 93.1356C91.6508 92.5802 91.6661 92.5675 91.9979 92.5125C92.2096 92.4774 92.2795 92.4168 92.425 92.1427C92.8253 91.3885 93.9813 90.4936 94.903 90.2243C95.1715 90.1458 95.2782 90.0459 95.7403 89.4396C96.3089 88.6935 96.3588 88.5345 96.1672 88.0811C96.0681 87.8467 96.0711 87.8342 96.2563 87.7051C96.5393 87.5078 97.1197 87.2291 97.4528 87.1307C97.6377 87.0761 97.7872 86.9739 97.8596 86.8527C97.9226 86.7473 98.1197 86.5217 98.2977 86.3511C98.598 86.0635 98.6214 86.0153 98.6214 85.6837C98.6214 85.3699 98.6712 85.2484 99.0311 84.6861C99.428 84.0659 99.4508 84.0443 99.7587 83.997C99.9935 83.9608 100.147 83.8782 100.347 83.6811L100.617 83.4142V82.7345C100.617 82.3205 100.654 81.9661 100.713 81.8281C100.9 81.3899 101.375 80.8846 101.787 80.6853C102.004 80.5803 102.37 80.3156 102.6 80.097C102.944 79.7697 103.058 79.5978 103.246 79.1227L103.474 78.5456L103.318 78.2422C103.232 78.0753 103.082 77.8352 102.984 77.7088L102.807 77.4789L102.968 77.0396C103.198 76.4125 103.507 75.8224 103.871 75.3149L104.187 74.8746H104.815C105.34 74.8746 105.474 74.851 105.629 74.7306C105.842 74.5642 105.96 74.2087 105.961 73.7278C105.961 73.5425 106.009 73.2771 106.068 73.1381C106.128 72.996 106.175 72.6717 106.175 72.3979C106.175 71.8003 106.345 71.4299 106.745 71.1564C106.899 71.0514 107.026 70.92 107.027 70.8645C107.033 70.6679 107.548 68.5582 107.794 67.7252C107.932 67.2603 108.07 66.7056 108.103 66.4926C108.135 66.2795 108.258 65.8353 108.376 65.5055C108.682 64.6536 108.814 63.822 108.87 62.4072C108.914 61.3105 108.936 61.1512 109.07 60.9632C109.675 60.1163 109.833 59.4084 109.77 57.8332C109.733 56.9074 109.744 56.6011 109.826 56.3495C109.902 56.1178 109.925 55.7485 109.911 54.976C109.901 54.3949 109.927 53.6342 109.968 53.2855C110.045 52.6266 109.984 50.9386 109.778 48.0027C109.674 46.5231 109.626 46.2312 109.344 45.3434C109.248 45.043 109.155 44.5834 109.136 44.3221C109.096 43.7648 108.611 41.4375 108.352 40.562C108.164 39.9278 107.601 38.5418 107.42 38.2689C107.362 38.1821 107.315 37.9812 107.315 37.8223C107.315 37.5141 107.236 37.314 107.022 37.0807C106.948 37.0009 106.794 36.6047 106.679 36.2002C106.563 35.7957 106.358 35.1929 106.222 34.8605C105.741 33.6854 104.04 30.4576 102.718 28.2097C101.654 26.4013 100.833 24.9357 100.351 23.9834C99.7601 22.8169 99.4221 22.254 98.9965 21.7275C98.8096 21.4961 98.516 21.0374 98.3442 20.7081C97.6123 19.3052 96.8241 18.2536 96.2231 17.8785C95.6763 17.5371 95.3687 17.1939 95.0173 16.5328C94.712 15.9585 94.2588 15.4912 93.7695 15.2461C93.5824 15.1524 93.3839 15.0117 93.3285 14.9335C93.2731 14.8554 93.0224 14.6604 92.7713 14.5002C92.5202 14.34 91.7423 13.7657 91.0428 13.2238C89.8021 12.2629 86.5976 10.0886 85.9172 9.746C85.7299 9.65176 85.1094 9.40121 84.5383 9.18933L83.4999 8.80411H81.5354H79.5708L78.755 9.23131C77.2481 10.0204 76.6842 10.4056 75.8801 11.195C74.7109 12.343 73.3257 14.2581 73.2862 14.7812C73.2747 14.9338 73.2261 15.1311 73.1781 15.2196C73.0676 15.4238 73.0451 15.67 72.9973 17.2C72.9692 18.0994 72.9821 18.4905 73.0437 18.6042C73.0907 18.691 73.1416 19.1201 73.1568 19.5577C73.1883 20.4679 73.3569 21.0389 73.9748 22.3281C74.6179 23.6699 75.1501 24.3829 75.7296 24.6791C75.8665 24.7491 75.9624 24.8745 76.0171 25.0549C76.1188 25.3904 76.4945 25.7598 76.8601 25.8837C77.1069 25.9674 77.1542 26.0239 77.3065 26.4163C77.4133 26.6917 77.5821 26.9564 77.7591 27.1262C78.0973 27.4507 78.9601 27.8927 79.2551 27.8927C79.3713 27.8927 79.7758 28.0154 80.154 28.1655C80.5323 28.3154 81.0823 28.4971 81.3762 28.5693C81.7612 28.6638 82.0004 28.7726 82.2313 28.9582C82.599 29.2535 83.0198 29.4738 83.3518 29.5446C83.6 29.5975 83.9416 29.9414 83.9416 30.1383C83.9416 30.2072 84.1656 30.4257 84.4583 30.6423C84.7424 30.8526 86.0812 32.1067 87.4334 33.4293C89.1489 35.1073 89.9675 35.8605 90.1422 35.9216C90.322 35.9846 90.4524 36.1082 90.6054 36.3606C90.8334 36.7369 91.612 37.5027 91.839 37.574C91.9322 37.6032 91.9911 37.707 92.0217 37.8961C92.1032 38.4003 92.346 38.9208 92.7458 39.4492C93.2122 40.0653 93.717 40.9042 93.8874 41.3463C93.9546 41.5207 94.1212 41.7597 94.2578 41.8776C94.4586 42.051 94.5317 42.192 94.6406 42.6158C94.7145 42.9038 94.8709 43.3419 94.988 43.5892C95.1362 43.9022 95.2013 44.1487 95.2024 44.4006C95.2043 44.8526 95.388 45.2566 95.7299 45.5607C95.9862 45.7887 95.9935 45.8088 95.9861 46.2651C95.9759 46.8922 96.0247 47.2866 96.1372 47.486C96.2168 47.6271 96.2683 47.9812 96.3663 49.0592C96.3769 49.1755 96.4475 49.3973 96.5233 49.5523C96.6392 49.7893 96.6583 49.9642 96.6436 50.6534C96.6314 51.2313 96.6558 51.5426 96.7264 51.71C96.807 51.9011 96.8206 52.3444 96.7967 53.9899C96.7793 55.175 96.7345 56.1299 96.6899 56.2644C96.6476 56.3919 96.633 56.5476 96.6574 56.6104C96.6818 56.6732 96.6698 56.9651 96.6308 57.259C96.5919 57.553 96.5091 58.2531 96.447 58.8149C96.1639 61.3739 95.2195 65.0411 94.1522 67.7252C92.8863 70.9087 90.1452 75.7025 87.8268 78.7872C85.3591 82.0706 82.0861 85.0803 77.7063 88.0935C73.1298 91.2421 68.1592 93.6371 63.7748 94.8063C60.0544 95.7983 55.4035 96.2411 51.1259 96.0106C46.595 95.7664 43.8777 95.3148 41.568 94.4221C41.0475 94.2209 40.6331 94.1041 40.4397 94.1041C40.2485 94.1041 40.0173 94.0398 39.8223 93.9324C39.6507 93.838 39.1897 93.6779 38.7978 93.5768C36.851 93.0748 35.1277 92.3504 33.2826 91.2588C32.8669 91.0129 32.3634 90.7592 32.1636 90.6949C31.9365 90.6219 31.7676 90.5174 31.7127 90.416C31.6035 90.2143 31.2777 90.0188 31.0509 90.0188C30.7758 90.0188 27.9578 87.9697 25.864 86.2472C22.7332 83.6715 20.6432 81.3605 18.5073 78.1125C16.7447 75.4321 15.4651 72.9437 14.0463 69.4367C12.7623 66.2634 12.0408 63.5345 11.5451 59.9771C11.1538 57.1689 11.1596 56.3422 11.6136 50.2567C11.8003 47.7549 12.0955 46.1404 12.8563 43.4594C14.4152 37.9667 18.1291 30.9493 21.615 26.9102C23.7496 24.4368 26.0243 22.5907 29.5935 20.435C31.4697 19.3018 33.1101 18.0967 34.6131 16.7473C35.0994 16.3107 35.5685 15.8963 35.6557 15.8263C35.9355 15.6014 41.105 13.8564 44.7481 12.757C46.8539 12.1215 48.7128 11.7312 50.5202 11.545C50.971 11.4986 51.3702 11.4334 51.4074 11.4002C51.5145 11.3048 52.9029 11.331 53.7626 11.4447C54.1937 11.5017 54.8832 11.5504 55.2947 11.5529C55.7062 11.5553 56.1873 11.5875 56.3636 11.6242C56.54 11.6611 56.9386 11.708 57.2494 11.7288C57.5602 11.7494 57.8617 11.805 57.9194 11.8524C58.0207 11.9354 58.2126 11.9377 60.436 11.8818C60.8518 11.8714 61.0122 11.8953 61.113 11.9825C61.1856 12.0454 61.3655 12.1351 61.5128 12.1819C61.66 12.2286 61.8135 12.3277 61.8538 12.4021C61.9188 12.5221 62.0102 12.5373 62.6673 12.5373C63.0745 12.5373 63.5662 12.5011 63.7599 12.4569C64.1904 12.3587 64.3353 12.3918 64.8701 12.7106C65.2479 12.9357 65.3392 12.9599 65.8101 12.9599C66.097 12.9599 66.3516 12.9282 66.3758 12.8895C66.4486 12.7731 66.8087 12.81 66.934 12.9469C66.9983 13.0172 67.0858 13.1678 67.1282 13.2815C67.175 13.4066 67.3472 13.5785 67.5647 13.7171C67.854 13.9015 67.9971 13.9461 68.2992 13.9461C68.6854 13.9461 68.8284 13.8622 68.8642 13.615C68.8744 13.5451 69.0555 13.3925 69.2682 13.2747L69.6538 13.0612L69.6752 12.6575C69.6931 12.3188 69.6759 12.2477 69.5683 12.216C69.4977 12.1952 69.3214 12.1163 69.1765 12.0407C68.8561 11.8737 68.5324 11.8649 68.2978 12.0168C68.13 12.1255 68.1123 12.1212 67.8708 11.9115C67.545 11.6288 67.1375 11.4254 66.7855 11.3697C66.5504 11.3325 66.422 11.2356 65.9903 10.7691C65.5599 10.304 65.4395 10.2129 65.2552 10.2129C65.0883 10.2129 64.964 10.1394 64.7433 9.91033C64.3157 9.46665 64.2717 9.44354 63.6499 9.33549C63.337 9.28111 62.8639 9.13932 62.5985 9.02035C62.044 8.77185 61.7229 8.75107 60.9888 8.91611C60.578 9.00845 60.429 9.01338 60.1375 8.94428C59.7016 8.84095 59.0119 8.40903 58.7587 8.08093C58.5966 7.87081 58.5176 7.83066 58.2088 7.80136C57.9773 7.77938 57.7966 7.71613 57.7042 7.6247C57.5137 7.43642 57.5866 7.2082 57.856 7.14974C57.9677 7.12544 58.1172 7.04218 58.1882 6.96463C58.3544 6.78304 58.2792 6.65492 57.8411 6.37401C57.5796 6.20637 57.5031 6.11177 57.4704 5.91617C57.3811 5.38204 57.0892 4.81663 56.6127 4.25496L56.3786 3.97913L55.3913 3.92644C52.9852 3.79796 52.5658 3.79268 51.9566 3.88326C51.3804 3.96885 51.0275 3.98216 50.2352 3.94807C49.9375 3.93525 49.2244 3.988 47.6342 4.1405C47.2064 4.1815 46.8983 4.25278 46.7088 4.3547C46.5264 4.45275 46.2991 4.50741 46.0733 4.50741C45.6406 4.50741 44.8336 4.63941 44.6412 4.74162C44.5628 4.78332 44.3383 4.84157 44.1424 4.87122C43.9464 4.90081 43.5923 4.95363 43.3556 4.98857C43.1188 5.02351 42.8302 5.1 42.7142 5.15861C42.4385 5.29786 41.83 5.4231 41.4289 5.4231C41.2146 5.4231 40.9681 5.49382 40.6786 5.63822C40.4414 5.75655 39.9213 5.96111 39.5226 6.09282C38.8485 6.31562 38.7529 6.32956 38.1565 6.29237C37.5226 6.25293 37.5095 6.25539 37.0331 6.50693C36.7592 6.65154 36.4496 6.76142 36.316 6.76142C36.1456 6.76142 36.0233 6.8215 35.8716 6.97992C35.7565 7.10008 35.4626 7.34006 35.2185 7.51327C34.8557 7.77065 34.6895 7.8401 34.3085 7.89342C34.0218 7.93357 33.7401 8.02556 33.5766 8.13249C33.4304 8.22807 33.1985 8.34401 33.0613 8.39008C32.9241 8.43621 32.7061 8.57991 32.5769 8.70944C32.3316 8.95527 32.1537 8.9976 31.9092 8.86828C31.7673 8.79319 31.7685 8.78692 31.9674 8.57885C32.2272 8.30689 33.0423 7.75959 33.6063 7.47819C33.8473 7.35803 34.1039 7.18602 34.1764 7.09593C34.249 7.00584 34.4139 6.88933 34.5429 6.83707C34.6719 6.78473 34.904 6.65125 35.0589 6.54038C35.2137 6.42952 35.4024 6.33879 35.4781 6.33879C35.7168 6.33879 36.0425 5.99449 36.31 5.45952L36.5683 4.94286L37.057 4.78754C37.5719 4.62392 37.6517 4.62603 38.5128 4.82692C38.7871 4.89087 39.2361 4.94821 39.5104 4.95427L40.0092 4.96526L40.0301 4.41901C40.0557 3.74535 40.1544 3.65054 40.81 3.66998C41.3041 3.68463 41.3988 3.64441 41.3988 3.42007C41.3988 3.1965 41.2436 3.08788 40.8637 3.04555C40.5662 3.01237 40.5245 3.02864 40.2985 3.26553C40.1642 3.40619 40.0048 3.52128 39.9442 3.52128C39.8138 3.52128 39.261 3.31004 39.261 3.26017C39.261 3.24115 39.3606 3.13367 39.4823 3.02125C39.6489 2.86748 39.7729 2.81691 39.984 2.81691C40.2944 2.81691 40.7201 2.6299 40.9289 2.40175C41.0371 2.28348 41.1481 2.25341 41.4769 2.25341C41.7037 2.25341 41.9091 2.22171 41.9333 2.18297C41.9575 2.14423 42.0481 2.11253 42.1345 2.11253C42.221 2.11253 42.4114 2.04914 42.5576 1.97166C42.7039 1.89417 42.9336 1.83078 43.0681 1.83078C43.4204 1.83078 43.709 1.48859 43.4422 1.38737C43.1803 1.28806 42.395 1.28038 41.9764 1.37301ZM46.2476 1.59115C45.8268 1.70294 45.5928 1.86297 45.6468 2.00194C45.702 2.14416 46.1564 2.32384 46.4608 2.32384H46.7434V1.90122C46.7434 1.66877 46.7194 1.4807 46.69 1.48324C46.6605 1.48578 46.4615 1.53438 46.2476 1.59115ZM61.2272 5.56616C61.0941 5.61899 61.0668 5.68393 61.0668 5.9473C61.0668 6.2225 61.0929 6.278 61.2628 6.36443C61.6479 6.56032 62.0239 6.62033 62.5811 6.5749C63.0862 6.53369 63.1334 6.51679 63.1334 6.37711C63.1334 6.19334 62.8604 5.98245 62.2571 5.70034C61.8073 5.49002 61.5148 5.45191 61.2272 5.56616ZM58.6974 6.48551C58.6174 6.57222 58.5727 6.73402 58.5727 6.93751V7.25448H58.9889C59.4046 7.25448 59.4058 7.25512 59.9523 7.74755C60.3775 8.13059 60.5478 8.24061 60.7156 8.24061C60.8948 8.24061 60.9492 8.19891 61.0349 7.99633C61.1388 7.75064 61.1712 7.13727 61.0953 6.85742C61.018 6.57264 60.2344 6.33696 59.3922 6.34506C58.9258 6.34957 58.7995 6.37507 58.6974 6.48551ZM61.4232 7.497C61.4232 7.88617 61.4457 7.96654 61.5816 8.0605C61.8139 8.22138 62.1256 8.19454 62.3963 7.99048C62.5927 7.84242 62.6346 7.76382 62.6346 7.54356C62.6346 7.15073 62.4764 7.04317 61.8985 7.04317H61.4232V7.497ZM64.0851 7.78403C64.02 7.9516 64.1953 8.53462 64.3846 8.78023C64.4875 8.91371 64.6922 9.05114 64.8959 9.1234C65.0828 9.18976 65.4068 9.32302 65.616 9.41966C66.0305 9.61111 66.3565 9.60639 66.6684 9.40445C66.8001 9.31908 66.839 9.23131 66.839 9.0188C66.839 8.70775 66.6949 8.52236 66.4531 8.52236C66.0625 8.52236 65.0939 8.08086 64.8517 7.79234C64.7227 7.63872 64.1439 7.63245 64.0851 7.78403ZM45.2037 8.91554C45.3111 9.19208 45.2403 9.33704 44.8542 9.63175C44.5492 9.86462 44.4013 9.93111 44.1886 9.93111C43.6977 9.93111 43.4614 9.41903 43.8258 9.1451C44.2427 8.83179 45.1147 8.68648 45.2037 8.91554ZM31.5986 9.77263C31.4222 10.1938 31.0742 10.3798 30.2915 10.4714C29.9629 10.5099 29.9418 10.5013 29.7242 10.2404C29.4824 9.95048 29.4373 9.79024 29.5972 9.79024C29.6517 9.79024 29.772 9.7279 29.8645 9.65169C30.0103 9.53159 30.1441 9.51285 30.871 9.51081L31.7093 9.50849L31.5986 9.77263ZM70.8059 12.6547C70.7153 12.7442 70.7588 13.2815 70.8693 13.4373C70.9627 13.5692 71.0469 13.5939 71.4037 13.5939H71.8272V13.2468C71.8272 12.9557 71.797 12.8762 71.6395 12.7538C71.4565 12.6114 70.9147 12.5471 70.8059 12.6547ZM67.8723 38.5304C67.0867 38.6116 66.5033 38.7828 65.7344 39.1578C64.4604 39.7792 63.5315 40.6984 62.9178 41.945C62.3885 43.0203 62.3149 43.3619 62.3182 44.7273C62.3208 45.8092 62.3349 45.931 62.5217 46.4883C62.8812 47.5604 63.3607 48.3411 64.1053 49.0663C65.2437 50.175 66.5827 50.7536 68.1929 50.8324C69.5046 50.8967 70.6251 50.6217 71.7872 49.9505C72.3489 49.6261 73.3218 48.6939 73.7261 48.0929C75.0006 46.1979 75.0904 43.6388 73.953 41.6281C72.7743 39.5445 70.2921 38.28 67.8723 38.5304ZM44.6768 44.6217V50.6441H47.171H49.6651V49.7636V48.8832H48.133H46.6009V43.7412V38.5993H45.6389H44.6768V44.6217ZM36.8844 38.7231C36.7011 39.0163 31.7891 50.5413 31.8306 50.5808C31.9032 50.6498 33.7532 50.688 33.8202 50.6218C33.8487 50.5936 34.1636 49.85 34.5199 48.9696L35.1677 47.3687L37.3102 47.3501L39.4527 47.3315L40.1498 48.9526L40.8468 50.5737H41.8711C42.4344 50.5737 42.8953 50.5611 42.8953 50.5458C42.8953 50.5305 41.7769 47.86 40.4099 44.6115L37.9244 38.7049L37.423 38.6843C37.1471 38.673 36.9048 38.6905 36.8844 38.7231ZM51.5891 44.6921V50.7145L53.246 50.7141C55.1857 50.7136 55.9963 50.6159 56.9269 50.2704C57.8392 49.9317 58.3074 49.634 58.9982 48.9536C59.8917 48.0734 60.314 47.2863 60.5835 45.9987C60.844 44.7539 60.6866 43.0973 60.2048 42.0144C59.6832 40.842 58.6706 39.8374 57.4663 39.2976C56.421 38.8292 55.3218 38.6711 53.1034 38.6702L51.5891 38.6697V44.6921ZM69.5396 40.4685C70.265 40.6375 70.9376 41.0246 71.5487 41.625C72.3949 42.4563 72.8249 43.4635 72.8249 44.6143C72.8249 45.7908 72.4108 46.7629 71.5453 47.6184C70.6696 48.484 69.7162 48.881 68.5136 48.881C67.2923 48.881 66.3595 48.4864 65.4463 47.5834C64.5668 46.7135 64.2023 45.8458 64.2023 44.6217C64.2023 43.8886 64.3292 43.3343 64.6396 42.711C65.1679 41.6502 66.3061 40.7472 67.4648 40.4696C68.0112 40.3386 68.9801 40.3381 69.5396 40.4685ZM55.4616 40.6044C56.5518 40.7965 57.5344 41.4067 58.0937 42.2388C58.611 43.0084 58.7446 43.4734 58.748 44.516C58.7515 45.5915 58.5862 46.1755 58.0569 46.9577C57.199 48.2255 55.8665 48.8733 54.1011 48.8807L53.5132 48.8832V44.6921V40.5011L54.208 40.5035C54.5901 40.5049 55.1543 40.5503 55.4616 40.6044ZM38.0647 43.863C38.4454 44.7804 38.7466 45.541 38.7342 45.5533C38.7218 45.5656 38.0846 45.567 37.3182 45.5565L35.9249 45.5374L36.6131 43.8646C36.9916 42.9446 37.3174 42.1926 37.337 42.1935C37.3566 42.1944 37.6841 42.9457 38.0647 43.863ZM21.3389 54.341C18.8755 54.8793 17.0795 56.6253 16.4831 59.0614C16.3046 59.7908 16.3189 61.0751 16.5142 61.8584C17.057 64.0346 18.7242 65.7389 20.9262 66.3684C21.6613 66.5785 23.3578 66.5951 24.0824 66.3993C24.5288 66.2787 25.98 65.6139 26.2397 65.4111C26.3539 65.322 26.3641 65.1858 26.3466 63.9946L26.3271 62.6766L26.0777 63.0079C25.5967 63.647 24.6205 64.2552 23.7216 64.4759C23.1389 64.619 22.0421 64.6241 21.517 64.4862C19.4227 63.9359 17.9854 61.84 18.3052 59.8025C18.5328 58.3522 19.3392 57.2033 20.5646 56.5832C21.3509 56.1852 21.7092 56.1023 22.6216 56.1072C23.2838 56.1108 23.48 56.1394 23.8859 56.2919C24.6123 56.5649 25.1196 56.891 25.7716 57.5038L26.3626 58.0593L26.3278 57.6447C26.3086 57.4166 26.2731 56.823 26.249 56.3256L26.2051 55.4211L25.783 55.1515C25.2208 54.7922 24.4546 54.4845 23.7826 54.348C23.1241 54.2142 21.9347 54.2108 21.3389 54.341ZM32.9163 54.3414C30.9029 54.7384 29.0986 56.2368 28.3557 58.1292C27.7349 59.7104 27.798 61.5171 28.5284 63.0716C29.1411 64.3756 30.4159 65.5721 31.7674 66.1116C32.655 66.466 33.0268 66.5281 34.2371 66.5236C35.2845 66.5197 35.4266 66.5034 35.983 66.3237C38.0444 65.6577 39.4689 64.2491 40.1576 62.1959C40.3444 61.639 40.3587 61.5159 40.362 60.4349C40.3661 59.0977 40.2949 58.7596 39.7912 57.7231C38.9222 55.9346 37.3181 54.7104 35.3532 54.336C34.7158 54.2146 33.5466 54.2172 32.9163 54.3414ZM64.2468 54.3475C63.0619 54.609 62.1278 55.1005 61.2606 55.9188C60.6029 56.5394 60.2303 57.0529 59.8551 57.8556C59.4399 58.7439 59.3203 59.3254 59.3247 60.4349C59.3292 61.5588 59.4405 62.0666 59.8898 63.0151C60.2666 63.8102 60.6066 64.2696 61.2977 64.9173C62.5598 66.1002 64.0479 66.6271 65.8948 66.5452C68.955 66.4095 71.3811 64.137 71.7531 61.0578C71.8938 59.8926 71.6899 58.7968 71.1193 57.6526C70.3429 56.0957 69.0774 55.0342 67.3378 54.4808C66.8223 54.3168 66.5835 54.2845 65.7344 54.2637C65.0192 54.2463 64.5981 54.27 64.2468 54.3475ZM42.3965 60.3997V66.3517H43.3941H44.3918V63.9322V61.5127L45.1876 61.4649C46.5161 61.3851 47.2164 61.1346 47.9259 60.4854C48.7252 59.7539 49.0616 58.8602 49.0054 57.6174C48.9526 56.4513 48.5561 55.6767 47.7225 55.1103C46.9389 54.5781 46.1985 54.4477 43.9591 54.4477H42.3965V60.3997ZM51.2328 60.3922V66.3517H52.2305H53.2281V63.9324V61.5131L53.9942 61.469C55.4117 61.3877 56.2428 61.0576 56.953 60.2941C57.5601 59.6414 57.8578 58.8304 57.8592 57.8259C57.8616 56.1688 57.0264 55.0522 55.4563 54.6135C55.1401 54.5251 54.6055 54.491 53.1391 54.4657L51.2328 54.4327V60.3922ZM73.8226 60.3997V66.3517H76.3523H78.8821V65.4712V64.5908H77.3143H75.7466V59.5192V54.4477H74.7846H73.8226V60.3997ZM85.0438 54.5219C85.0162 54.566 83.8441 57.222 82.4391 60.4241L79.8846 66.246L80.3275 66.2906C80.5712 66.3151 81.0431 66.3383 81.3762 66.3421L81.9819 66.349L82.6346 64.7479L83.2873 63.1468L85.4851 63.1302L87.6828 63.1137L88.3629 64.6799L89.043 66.246L90.091 66.2655C90.6674 66.2763 91.139 66.2763 91.1389 66.2655C91.1388 66.2548 90.0041 63.5993 88.6173 60.3645L86.0956 54.4829L85.5948 54.4624C85.2762 54.4493 85.0757 54.471 85.0438 54.5219ZM35.5727 56.298C36.275 56.5531 36.7951 56.8887 37.2905 57.4065C37.8087 57.9481 38.2163 58.6783 38.3761 59.3511C38.5331 60.0122 38.4806 61.1481 38.2651 61.7537C37.8467 62.9292 36.7973 63.9666 35.607 64.3815C34.9893 64.5967 33.7669 64.6513 33.1363 64.4916C31.9008 64.1787 30.931 63.4105 30.3194 62.2601C29.9577 61.5796 29.8318 60.9721 29.8756 60.118C29.9343 58.9736 30.308 58.1443 31.1317 57.3302C31.6856 56.7827 32.3431 56.4016 33.0696 56.207C33.8023 56.0108 34.8911 56.0504 35.5727 56.298ZM66.8424 56.2645C68.1923 56.7362 69.2105 57.7098 69.6171 58.9174C70.1627 60.5381 69.7684 62.1844 68.5458 63.3911C67.7319 64.1943 66.7464 64.5908 65.5638 64.5908C64.2987 64.5908 63.3693 64.2099 62.4896 63.331C61.8728 62.7146 61.5548 62.1699 61.3501 61.3791C60.9223 59.7253 61.5604 57.9432 62.9402 56.9387C63.5182 56.518 63.8219 56.3691 64.4408 56.2029C65.0971 56.0268 66.2467 56.0563 66.8424 56.2645ZM45.9862 56.3786C46.4937 56.4967 46.7272 56.6577 46.9422 57.038C47.2766 57.6295 47.2085 58.5368 46.7946 59.0027C46.4197 59.4249 46.0988 59.5397 45.1935 59.5756L44.3918 59.6074V57.9433V56.2791L44.9797 56.2802C45.3031 56.2808 45.7559 56.3251 45.9862 56.3786ZM54.7014 56.3569C54.9498 56.3996 55.2571 56.5039 55.3842 56.5885C56.0672 57.0431 56.2021 58.3079 55.6396 58.9824C55.2762 59.4182 54.9479 59.5392 54.0298 59.5756L53.2281 59.6074V57.9433V56.2791H53.7389C54.0199 56.2791 54.453 56.3141 54.7014 56.3569ZM86.2398 59.6083C86.6219 60.5087 86.9346 61.2691 86.9346 61.298C86.9346 61.327 86.2932 61.3506 85.5093 61.3506C84.7255 61.3506 84.0841 61.3282 84.0841 61.3009C84.0841 61.2081 85.4667 57.9696 85.5059 57.9704C85.5275 57.9707 85.8577 58.7078 86.2398 59.6083ZM104.353 65.9702C104.417 66.2238 104.322 66.9923 104.205 67.1598C104.152 67.2362 104.108 67.4436 104.108 67.6206C104.108 67.8669 103.981 68.2309 103.566 69.1721C103.267 69.8485 102.608 71.4162 102.102 72.6559C101.174 74.9254 100.381 76.5263 99.0952 78.7271C98.7965 79.2383 98.48 79.8031 98.3919 79.9824C98.2741 80.2221 98.1807 80.3186 98.0395 80.3465C97.8866 80.3767 97.7117 80.5878 97.1832 81.3803C96.818 81.9281 96.2835 82.6499 95.9955 82.9844C95.7074 83.3188 95.1595 84.0161 94.778 84.534C94.3964 85.0518 93.9537 85.5706 93.7942 85.6868C93.5691 85.8508 93.5122 85.933 93.54 86.0537C93.5692 86.1805 93.4125 86.3637 92.6972 87.0399C92.214 87.4967 91.1598 88.5043 90.3546 89.2792C89.5493 90.054 88.2981 91.1621 87.5741 91.7417C86.2789 92.7784 84.8039 94.0072 83.937 94.7718C83.6945 94.9857 83.46 95.1607 83.416 95.1608C83.1664 95.1609 82.3905 95.626 82.0066 96.0055C81.6347 96.3731 81.4811 96.4665 80.8418 96.7136C80.4369 96.8701 79.8222 97.1759 79.476 97.3932C79.1297 97.6105 78.7775 97.7841 78.6934 97.779C78.6022 97.7734 78.4938 97.8399 78.4252 97.9434C78.2587 98.1946 77.9851 98.3506 77.6085 98.4091C77.0175 98.5009 76.5818 98.7073 76.1903 99.0809C75.9282 99.331 75.7368 99.452 75.5579 99.4806C75.4168 99.5033 75.2462 99.5712 75.1788 99.6314C75.1113 99.6918 74.8668 99.7894 74.6354 99.8485C74.4039 99.9076 74.0105 100.05 73.7611 100.165C73.2314 100.408 73.1099 100.422 73.1099 100.239C73.1099 100.153 73.2317 100.035 73.4484 99.911C73.6346 99.8045 73.8992 99.6309 74.0363 99.5253C74.1735 99.4196 74.4942 99.281 74.7489 99.2171C75.2439 99.0929 75.5871 98.91 77.1006 97.9637C77.6297 97.6329 78.7964 96.9438 79.6934 96.4325C81.5646 95.3656 82.819 94.5635 84.0737 93.6313C84.5579 93.2716 85.094 92.9161 85.2649 92.8413C85.7774 92.6173 86.2175 92.2872 87.0058 91.5358C87.4174 91.1436 88.0106 90.6025 88.3242 90.3335C88.6377 90.0644 89.3767 89.3842 89.9663 88.8221C90.556 88.2599 91.3748 87.483 91.786 87.0956C92.355 86.5594 92.5967 86.2734 92.7978 85.8981C92.9821 85.5544 93.1594 85.335 93.3835 85.1737C93.5603 85.0464 93.8378 84.777 94.0002 84.575C94.2745 84.2334 94.7017 83.4528 94.7021 83.292C94.7021 83.2532 94.8457 83.1319 95.021 83.0225C95.4436 82.7586 95.5927 82.5732 96.2032 81.5535C96.4869 81.0796 97.062 80.1675 97.4811 79.5266C97.9003 78.8857 98.4746 77.9814 98.7575 77.517C99.0403 77.0526 99.3772 76.5771 99.5061 76.4604C99.7856 76.2074 99.9849 75.8365 100.15 75.2621C100.217 75.0296 100.414 74.598 100.588 74.3029C100.964 73.664 101.388 72.7159 101.623 71.9867C101.716 71.6962 101.899 71.2841 102.029 71.071C102.475 70.3408 102.912 69.3618 103.047 68.7902C103.247 67.9435 103.893 66.1289 104.06 65.9467C104.246 65.743 104.296 65.7471 104.353 65.9702ZM72.4221 100.399C72.3105 100.53 72.1069 100.693 71.9698 100.76C71.6386 100.924 70.8445 101.148 70.5952 101.148H70.396L70.5937 100.903C70.8542 100.58 71.8444 100.19 72.4578 100.168L72.6252 100.162L72.4221 100.399Z" fill="white"/>
</svg>
