<svg width="1920" height="1900" viewBox="0 0 1920 1900" fill="none" xmlns="http://www.w3.org/2000/svg">
<g filter="url(#filter0_d_4_401)">
<ellipse cx="76.1671" cy="77.2512" rx="76.1671" ry="77.2512" transform="matrix(0.123141 0.992389 -0.992815 0.119657 462.393 543)" fill="#CED3FD"/>
</g>
<g filter="url(#filter1_d_4_401)">
<ellipse cx="86.0343" cy="87.2588" rx="86.0343" ry="87.2588" transform="matrix(0.123141 0.992389 -0.992815 0.119657 1649.26 1028)" fill="#CED3FD"/>
</g>
<rect width="470.054" height="182.619" rx="68.4215" transform="matrix(-0.657235 0.753686 -0.763069 -0.646317 534.182 118.677)" fill="url(#paint0_linear_4_401)"/>
<rect width="471.835" height="181.927" rx="68.4215" transform="matrix(0.831381 0.555703 -0.5669 0.823787 1527.72 618.636)" fill="url(#paint1_linear_4_401)"/>
<rect width="471.835" height="181.927" rx="68.4215" transform="matrix(0.831381 0.555703 -0.5669 0.823787 443.136 1466)" fill="url(#paint2_linear_4_401)"/>
<rect width="141.978" height="395.762" rx="68.4215" transform="matrix(-0.831381 -0.555703 0.5669 -0.823787 1675.56 1617.73)" fill="url(#paint3_linear_4_401)"/>
<rect width="141.978" height="395.762" rx="68.4215" transform="matrix(-0.831381 -0.555703 0.5669 -0.823787 103.227 1398.06)" fill="url(#paint4_linear_4_401)"/>
<g filter="url(#filter2_f_4_401)">
<ellipse cx="619.094" cy="650.769" rx="619.094" ry="650.769" transform="matrix(0.71696 0.697114 -0.707479 0.706734 856.811 739)" fill="url(#paint5_linear_4_401)"/>
</g>
<g filter="url(#filter3_f_4_401)">
<ellipse cx="90.2869" cy="97.9158" rx="90.2869" ry="97.9158" transform="matrix(0.71696 0.697114 -0.707479 0.706734 1787.37 132.979)" fill="url(#paint6_linear_4_401)"/>
</g>
<g filter="url(#filter4_f_4_401)">
<ellipse cx="140.325" cy="159.561" rx="140.325" ry="159.561" transform="matrix(0.71696 0.697114 -0.707479 0.706734 228.417 739.058)" fill="url(#paint7_linear_4_401)"/>
</g>
<g filter="url(#filter5_d_4_401)">
<ellipse cx="29.9995" cy="545" rx="167" ry="165" fill="#CED3FD"/>
</g>
<g filter="url(#filter6_d_4_401)">
<ellipse cx="1412.5" cy="1672" rx="167.5" ry="165" fill="#CED3FD"/>
</g>
<g filter="url(#filter7_d_4_401)">
<ellipse cx="26.4956" cy="26.8727" rx="26.4956" ry="26.8727" transform="matrix(0.123141 0.992389 -0.992815 0.119657 238.615 54.9035)" fill="#CED3FD"/>
</g>
<path d="M302.495 1452.82C302.853 1451.73 304.465 1452 304.447 1453.14L303.72 1498.27C303.713 1498.69 303.97 1499.06 304.364 1499.21L342.091 1513.41C343.112 1513.8 342.858 1515.31 341.765 1515.35L301.405 1516.77C300.985 1516.79 300.617 1517.07 300.486 1517.47L286.379 1560.4C286.021 1561.49 284.409 1561.23 284.428 1560.08L285.154 1514.96C285.161 1514.54 284.904 1514.16 284.51 1514.01L246.784 1499.81C245.762 1499.42 246.016 1497.91 247.109 1497.87L287.469 1496.45C287.89 1496.43 288.257 1496.16 288.389 1495.76L302.495 1452.82Z" fill="#CEDCE9"/>
<g filter="url(#filter8_d_4_401)">
<ellipse cx="25.438" cy="25.8001" rx="25.438" ry="25.8001" transform="matrix(0.123141 0.992389 -0.992815 0.119657 1810.16 86.6631)" fill="#CED3FD"/>
</g>
<path d="M1812.11 289.225C1812.88 288.365 1814.26 289.238 1813.78 290.281L1795.07 331.443C1794.9 331.825 1794.98 332.273 1795.29 332.562L1824.28 360.29C1825.07 361.042 1824.24 362.324 1823.22 361.934L1785.54 347.551C1785.15 347.401 1784.7 347.51 1784.42 347.826L1754.29 381.78C1753.53 382.64 1752.14 381.766 1752.62 380.724L1771.33 339.561C1771.51 339.179 1771.42 338.732 1771.12 338.442L1742.12 310.714C1741.33 309.962 1742.16 308.681 1743.19 309.071L1780.86 323.453C1781.26 323.604 1781.7 323.494 1781.98 323.179L1812.11 289.225Z" fill="#F2D146"/>
<rect width="18.7364" height="77.3173" rx="9.36819" transform="matrix(0.712236 0.70194 -0.712236 0.70194 64.4258 165.206)" fill="url(#paint8_linear_4_401)"/>
<rect width="18.7364" height="77.3173" rx="9.36819" transform="matrix(0.712236 0.70194 -0.712236 0.70194 72.4824 1617.74)" fill="url(#paint9_linear_4_401)"/>
<rect width="18.7364" height="77.3173" rx="9.36819" transform="matrix(0.712236 0.70194 -0.712236 0.70194 1871.74 1699.79)" fill="url(#paint10_linear_4_401)"/>
<rect width="18.7364" height="77.3173" rx="9.36819" transform="matrix(0.712236 0.70194 -0.712236 0.70194 1847.57 543.207)" fill="url(#paint11_linear_4_401)"/>
<rect width="18.6973" height="77.3173" rx="9.34864" transform="matrix(0.712236 -0.70194 0.712236 0.70194 9.35742 181.833)" fill="url(#paint12_linear_4_401)"/>
<rect width="18.6973" height="77.3173" rx="9.34864" transform="matrix(0.712236 -0.70194 0.712236 0.70194 17.4136 1634.37)" fill="url(#paint13_linear_4_401)"/>
<rect width="18.6973" height="77.3173" rx="9.34864" transform="matrix(0.712236 -0.70194 0.712236 0.70194 1816.67 1716.41)" fill="url(#paint14_linear_4_401)"/>
<rect width="18.6973" height="77.3173" rx="9.34864" transform="matrix(0.712236 -0.70194 0.712236 0.70194 1792.5 559.835)" fill="url(#paint15_linear_4_401)"/>
<defs>
<filter id="filter0_d_4_401" x="302.801" y="542.673" width="184.551" height="182.316" filterUnits="userSpaceOnUse" color-interpolation-filters="sRGB">
<feFlood flood-opacity="0" result="BackgroundImageFix"/>
<feColorMatrix in="SourceAlpha" type="matrix" values="0 0 0 0 0 0 0 0 0 0 0 0 0 0 0 0 0 0 127 0" result="hardAlpha"/>
<feMorphology radius="5" operator="dilate" in="SourceAlpha" result="effect1_dropShadow_4_401"/>
<feOffset dy="6"/>
<feGaussianBlur stdDeviation="5"/>
<feComposite in2="hardAlpha" operator="out"/>
<feColorMatrix type="matrix" values="0 0 0 0 0 0 0 0 0 0 0 0 0 0 0 0 0 0 0.25 0"/>
<feBlend mode="normal" in2="BackgroundImageFix" result="effect1_dropShadow_4_401"/>
<feBlend mode="normal" in="SourceGraphic" in2="effect1_dropShadow_4_401" result="shape"/>
</filter>
<filter id="filter1_d_4_401" x="1470.94" y="1028.8" width="204.572" height="202.049" filterUnits="userSpaceOnUse" color-interpolation-filters="sRGB">
<feFlood flood-opacity="0" result="BackgroundImageFix"/>
<feColorMatrix in="SourceAlpha" type="matrix" values="0 0 0 0 0 0 0 0 0 0 0 0 0 0 0 0 0 0 127 0" result="hardAlpha"/>
<feMorphology radius="5" operator="dilate" in="SourceAlpha" result="effect1_dropShadow_4_401"/>
<feOffset dy="6"/>
<feGaussianBlur stdDeviation="5"/>
<feComposite in2="hardAlpha" operator="out"/>
<feColorMatrix type="matrix" values="0 0 0 0 0 0 0 0 0 0 0 0 0 0 0 0 0 0 0.25 0"/>
<feBlend mode="normal" in2="BackgroundImageFix" result="effect1_dropShadow_4_401"/>
<feBlend mode="normal" in="SourceGraphic" in2="effect1_dropShadow_4_401" result="shape"/>
</filter>
<filter id="filter2_f_4_401" x="50.7471" y="849.794" width="1579.05" height="1561.41" filterUnits="userSpaceOnUse" color-interpolation-filters="sRGB">
<feFlood flood-opacity="0" result="BackgroundImageFix"/>
<feBlend mode="normal" in="SourceGraphic" in2="BackgroundImageFix" result="shape"/>
<feGaussianBlur stdDeviation="75" result="effect1_foregroundBlur_4_401"/>
</filter>
<filter id="filter3_f_4_401" x="1538.02" y="21.5769" width="489.622" height="487.086" filterUnits="userSpaceOnUse" color-interpolation-filters="sRGB">
<feFlood flood-opacity="0" result="BackgroundImageFix"/>
<feBlend mode="normal" in="SourceGraphic" in2="BackgroundImageFix" result="shape"/>
<feGaussianBlur stdDeviation="75" result="effect1_foregroundBlur_4_401"/>
</filter>
<filter id="filter4_f_4_401" x="-85.0752" y="650.361" width="602.427" height="598.573" filterUnits="userSpaceOnUse" color-interpolation-filters="sRGB">
<feFlood flood-opacity="0" result="BackgroundImageFix"/>
<feBlend mode="normal" in="SourceGraphic" in2="BackgroundImageFix" result="shape"/>
<feGaussianBlur stdDeviation="75" result="effect1_foregroundBlur_4_401"/>
</filter>
<filter id="filter5_d_4_401" x="-152" y="371" width="364" height="360" filterUnits="userSpaceOnUse" color-interpolation-filters="sRGB">
<feFlood flood-opacity="0" result="BackgroundImageFix"/>
<feColorMatrix in="SourceAlpha" type="matrix" values="0 0 0 0 0 0 0 0 0 0 0 0 0 0 0 0 0 0 127 0" result="hardAlpha"/>
<feMorphology radius="5" operator="dilate" in="SourceAlpha" result="effect1_dropShadow_4_401"/>
<feOffset dy="6"/>
<feGaussianBlur stdDeviation="5"/>
<feComposite in2="hardAlpha" operator="out"/>
<feColorMatrix type="matrix" values="0 0 0 0 0 0 0 0 0 0 0 0 0 0 0 0 0 0 0.25 0"/>
<feBlend mode="normal" in2="BackgroundImageFix" result="effect1_dropShadow_4_401"/>
<feBlend mode="normal" in="SourceGraphic" in2="effect1_dropShadow_4_401" result="shape"/>
</filter>
<filter id="filter6_d_4_401" x="1230" y="1498" width="365" height="360" filterUnits="userSpaceOnUse" color-interpolation-filters="sRGB">
<feFlood flood-opacity="0" result="BackgroundImageFix"/>
<feColorMatrix in="SourceAlpha" type="matrix" values="0 0 0 0 0 0 0 0 0 0 0 0 0 0 0 0 0 0 127 0" result="hardAlpha"/>
<feMorphology radius="5" operator="dilate" in="SourceAlpha" result="effect1_dropShadow_4_401"/>
<feOffset dy="6"/>
<feGaussianBlur stdDeviation="5"/>
<feComposite in2="hardAlpha" operator="out"/>
<feColorMatrix type="matrix" values="0 0 0 0 0 0 0 0 0 0 0 0 0 0 0 0 0 0 0.25 0"/>
<feBlend mode="normal" in2="BackgroundImageFix" result="effect1_dropShadow_4_401"/>
<feBlend mode="normal" in="SourceGraphic" in2="effect1_dropShadow_4_401" result="shape"/>
</filter>
<filter id="filter7_d_4_401" x="173.317" y="48.9204" width="83.7622" height="82.985" filterUnits="userSpaceOnUse" color-interpolation-filters="sRGB">
<feFlood flood-opacity="0" result="BackgroundImageFix"/>
<feColorMatrix in="SourceAlpha" type="matrix" values="0 0 0 0 0 0 0 0 0 0 0 0 0 0 0 0 0 0 127 0" result="hardAlpha"/>
<feMorphology radius="5" operator="dilate" in="SourceAlpha" result="effect1_dropShadow_4_401"/>
<feOffset dy="6"/>
<feGaussianBlur stdDeviation="5"/>
<feComposite in2="hardAlpha" operator="out"/>
<feColorMatrix type="matrix" values="0 0 0 0 0 0 0 0 0 0 0 0 0 0 0 0 0 0 0.25 0"/>
<feBlend mode="normal" in2="BackgroundImageFix" result="effect1_dropShadow_4_401"/>
<feBlend mode="normal" in="SourceGraphic" in2="effect1_dropShadow_4_401" result="shape"/>
</filter>
<filter id="filter8_d_4_401" x="1746.87" y="80.5596" width="81.6162" height="80.8702" filterUnits="userSpaceOnUse" color-interpolation-filters="sRGB">
<feFlood flood-opacity="0" result="BackgroundImageFix"/>
<feColorMatrix in="SourceAlpha" type="matrix" values="0 0 0 0 0 0 0 0 0 0 0 0 0 0 0 0 0 0 127 0" result="hardAlpha"/>
<feMorphology radius="5" operator="dilate" in="SourceAlpha" result="effect1_dropShadow_4_401"/>
<feOffset dy="6"/>
<feGaussianBlur stdDeviation="5"/>
<feComposite in2="hardAlpha" operator="out"/>
<feColorMatrix type="matrix" values="0 0 0 0 0 0 0 0 0 0 0 0 0 0 0 0 0 0 0.25 0"/>
<feBlend mode="normal" in2="BackgroundImageFix" result="effect1_dropShadow_4_401"/>
<feBlend mode="normal" in="SourceGraphic" in2="effect1_dropShadow_4_401" result="shape"/>
</filter>
<linearGradient id="paint0_linear_4_401" x1="235.027" y1="0" x2="127.905" y2="148.83" gradientUnits="userSpaceOnUse">
<stop stop-color="#89CAE3"/>
<stop offset="1" stop-color="#D9D9D9" stop-opacity="0"/>
<stop offset="1" stop-color="#EAB801"/>
<stop offset="1" stop-color="#F2D146"/>
</linearGradient>
<linearGradient id="paint1_linear_4_401" x1="235.917" y1="0" x2="129.46" y2="149.031" gradientUnits="userSpaceOnUse">
<stop stop-color="#89CAE3"/>
<stop offset="1" stop-color="#D9D9D9" stop-opacity="0"/>
<stop offset="1" stop-color="#EAB801"/>
<stop offset="1" stop-color="#F2D146"/>
</linearGradient>
<linearGradient id="paint2_linear_4_401" x1="235.917" y1="0" x2="129.46" y2="149.031" gradientUnits="userSpaceOnUse">
<stop stop-color="#89CAE3"/>
<stop offset="1" stop-color="#D9D9D9" stop-opacity="0"/>
<stop offset="1" stop-color="#EAB801"/>
<stop offset="1" stop-color="#F2D146"/>
</linearGradient>
<linearGradient id="paint3_linear_4_401" x1="70.9892" y1="0" x2="-20.3965" y2="17.6961" gradientUnits="userSpaceOnUse">
<stop stop-color="#89CAE3"/>
<stop offset="1" stop-color="#D9D9D9" stop-opacity="0"/>
<stop offset="1" stop-color="#EAB801"/>
<stop offset="1" stop-color="#F2D146"/>
</linearGradient>
<linearGradient id="paint4_linear_4_401" x1="70.9892" y1="0" x2="-20.3965" y2="17.6961" gradientUnits="userSpaceOnUse">
<stop stop-color="#89CAE3"/>
<stop offset="1" stop-color="#D9D9D9" stop-opacity="0"/>
<stop offset="1" stop-color="#EAB801"/>
<stop offset="1" stop-color="#F2D146"/>
</linearGradient>
<linearGradient id="paint5_linear_4_401" x1="1024.36" y1="70.5653" x2="255.283" y2="1166.77" gradientUnits="userSpaceOnUse">
<stop stop-color="#4791D6"/>
<stop offset="1" stop-color="#F5C24D"/>
</linearGradient>
<linearGradient id="paint6_linear_4_401" x1="149.39" y1="10.6174" x2="32.488" y2="172.122" gradientUnits="userSpaceOnUse">
<stop stop-color="#4791D6"/>
<stop offset="1" stop-color="#F5C24D"/>
</linearGradient>
<linearGradient id="paint7_linear_4_401" x1="232.185" y1="17.3018" x2="39.0425" y2="271.795" gradientUnits="userSpaceOnUse">
<stop stop-color="#4791D6"/>
<stop offset="1" stop-color="#F5C24D"/>
</linearGradient>
<linearGradient id="paint8_linear_4_401" x1="9.36819" y1="0" x2="9.36819" y2="77.3173" gradientUnits="userSpaceOnUse">
<stop stop-color="#6495C2"/>
<stop offset="1" stop-color="#D9D9D9"/>
</linearGradient>
<linearGradient id="paint9_linear_4_401" x1="9.36819" y1="0" x2="9.36819" y2="77.3173" gradientUnits="userSpaceOnUse">
<stop stop-color="#6495C2"/>
<stop offset="1" stop-color="#D9D9D9"/>
</linearGradient>
<linearGradient id="paint10_linear_4_401" x1="9.36819" y1="0" x2="9.36819" y2="77.3173" gradientUnits="userSpaceOnUse">
<stop stop-color="#6495C2"/>
<stop offset="1" stop-color="#D9D9D9"/>
</linearGradient>
<linearGradient id="paint11_linear_4_401" x1="9.36819" y1="0" x2="9.36819" y2="77.3173" gradientUnits="userSpaceOnUse">
<stop stop-color="#6495C2"/>
<stop offset="1" stop-color="#D9D9D9"/>
</linearGradient>
<linearGradient id="paint12_linear_4_401" x1="9.34864" y1="0" x2="9.34864" y2="77.3173" gradientUnits="userSpaceOnUse">
<stop stop-color="#6495C2"/>
<stop offset="1" stop-color="#D9D9D9"/>
</linearGradient>
<linearGradient id="paint13_linear_4_401" x1="9.34864" y1="0" x2="9.34864" y2="77.3173" gradientUnits="userSpaceOnUse">
<stop stop-color="#6495C2"/>
<stop offset="1" stop-color="#D9D9D9"/>
</linearGradient>
<linearGradient id="paint14_linear_4_401" x1="9.34864" y1="0" x2="9.34864" y2="77.3173" gradientUnits="userSpaceOnUse">
<stop stop-color="#6495C2"/>
<stop offset="1" stop-color="#D9D9D9"/>
</linearGradient>
<linearGradient id="paint15_linear_4_401" x1="9.34864" y1="0" x2="9.34864" y2="77.3173" gradientUnits="userSpaceOnUse">
<stop stop-color="#6495C2"/>
<stop offset="1" stop-color="#D9D9D9"/>
</linearGradient>
</defs>
</svg>
