<svg width="69" height="108" viewBox="0 0 69 108" fill="none" xmlns="http://www.w3.org/2000/svg">
<path fill-rule="evenodd" clip-rule="evenodd" d="M0 36.7919C0 72.1006 0.0131003 73.6982 0.325277 76.4182C0.504288 77.9772 0.737871 79.666 0.844505 80.1712C1.81546 84.774 3.76863 88.1953 6.80106 90.6045C9.5601 92.7965 14.0127 94.2107 18.9758 94.4714L21.0749 94.5816L21.0307 83.0756C21.0065 76.7472 21.0065 68.6035 21.0307 64.9783L21.0749 58.3872L23.4925 61.0532C26.9137 64.8259 26.9824 64.9023 28.3797 66.4763C29.0724 67.2566 29.6788 67.9326 29.7272 67.9785C29.8029 68.0505 35.5977 74.5307 37.028 76.1428C37.3051 76.4551 37.6073 76.794 37.6997 76.8959C37.792 76.9979 39.1138 78.4717 40.6367 80.1712C42.1598 81.8707 43.5795 83.449 43.7916 83.6787C44.0037 83.9083 45.0245 85.053 46.0603 86.2223L47.9433 88.3483L58.0609 88.3518C67.0193 88.355 68.7313 88.2935 68.0526 87.9934C67.9832 87.9628 67.3602 87.2989 66.6678 86.5181C65.9755 85.7373 65.3331 85.0155 65.2404 84.9142C65.1477 84.8129 64.6089 84.2117 64.0429 83.578C57.1331 75.8419 53.6095 71.9052 52.9811 71.2194C52.8887 71.1187 52.3597 70.5179 51.8056 69.8846C50.7245 68.6491 49.7481 67.5646 48.5129 66.2273C47.8428 65.5019 47.1149 64.6835 44.5847 61.8113C44.3076 61.4968 43.6482 60.7765 43.1194 60.2106C42.5906 59.6447 42.0097 58.9941 41.8285 58.7652C41.5 58.3498 41.5 58.3476 41.8665 57.9421C42.0685 57.7184 42.8005 56.8978 43.4932 56.1187C44.1859 55.3393 44.8282 54.621 44.9206 54.5219C45.0576 54.3753 46.7785 52.4527 47.4395 51.7078C47.7207 51.3907 50.4504 48.3658 50.6299 48.1719C50.7225 48.0722 51.2892 47.4398 51.8895 46.7665C52.4899 46.0933 53.0566 45.4609 53.149 45.361C53.2414 45.2613 53.5744 44.879 53.889 44.5116C54.2037 44.1443 55.0795 43.1672 55.8352 42.3404C56.5908 41.5136 57.5045 40.499 57.8659 40.0856C58.2271 39.6722 58.5628 39.2964 58.612 39.2505C58.661 39.2046 59.9433 37.7765 61.4614 36.077C62.9795 34.3776 64.2618 32.9495 64.3108 32.9036C64.36 32.8577 64.9659 32.1812 65.6574 31.4004C66.3488 30.6196 67.1981 29.68 67.5447 29.3126C67.8913 28.9451 68.1756 28.588 68.1767 28.5192C68.1777 28.4504 63.623 28.394 58.055 28.394H47.9315L47.401 29.0203C46.6826 29.8686 46.1051 30.5207 45.3672 31.3169C45.0267 31.6843 43.2384 33.6761 41.3932 35.743C39.5481 37.8099 37.9993 39.5386 37.9516 39.5845C37.9039 39.6305 36.3558 41.3592 34.5116 43.4261C32.6674 45.493 31.1176 47.2217 31.0677 47.2676C31.0179 47.3135 30.0412 48.4034 28.8973 49.6894C27.7533 50.9755 26.4697 52.4036 26.0447 52.8629C25.6198 53.3222 24.7056 54.3359 24.0131 55.1154C23.3207 55.895 22.6143 56.6842 22.4432 56.8691C22.272 57.0542 21.9421 57.4498 21.7095 57.7483C21.4771 58.047 21.2196 58.2911 21.1375 58.2911C21.0507 58.2911 21.0064 46.0867 21.0316 29.1456L21.0749 0H10.5374H0V36.7919ZM0.709996 101.018C0.546435 101.124 0.50714 101.936 0.542069 104.485L0.587746 107.814H1.17549H1.76324L1.81379 106.648C1.8603 105.575 2.13419 104.891 2.51673 104.891C2.57936 104.891 3.10094 105.567 3.6761 106.394L4.72161 107.897H5.56141C6.53976 107.897 6.59552 108.073 4.9065 105.825C4.22304 104.915 3.63362 104.088 3.59667 103.988C3.55973 103.887 4.09474 103.214 4.78543 102.491C5.47594 101.769 5.9945 101.102 5.93741 101.011C5.88031 100.919 5.51944 100.879 5.13522 100.922C4.54042 100.988 4.28836 101.156 3.43596 102.05C2.88533 102.628 2.3216 103.217 2.18306 103.359C1.95837 103.589 1.9221 103.474 1.8472 102.291C1.7671 101.026 1.74426 100.964 1.34342 100.922C1.11252 100.898 0.827545 100.942 0.709996 101.018ZM7.16948 100.989C7.10534 101.053 7.05295 102.635 7.05295 104.505V107.906L9.52988 107.86L12.0068 107.814V107.229V106.644L10.1176 106.597L8.22844 106.55V105.72V104.891H9.82375H11.4191V104.312V103.734L9.86573 103.686L8.3124 103.638V102.97V102.302L10.1274 102.254L11.9425 102.207L11.8906 101.586L11.8389 100.966L9.56245 100.919C8.31038 100.894 7.23346 100.925 7.16948 100.989ZM12.8372 101.096C12.7917 101.214 13.2327 102.774 13.8172 104.562L14.8802 107.814H15.5966H16.3131L17.032 105.642C18.1662 102.217 18.472 101.243 18.472 101.056C18.472 100.96 18.1835 100.882 17.831 100.882C17.1081 100.882 17.2132 100.666 16.187 104.264C15.9316 105.16 15.6626 105.893 15.5892 105.893C15.5158 105.893 15.4083 105.686 15.3504 105.433C15.0636 104.184 14.0411 101.118 13.875 101.01C13.5687 100.811 12.9267 100.865 12.8372 101.096ZM19.3499 101.018C19.1864 101.124 19.1471 101.936 19.182 104.485L19.2277 107.814H19.8154H20.4032V104.39V100.966L19.9834 100.922C19.7525 100.898 19.4675 100.942 19.3499 101.018ZM21.7009 101.022C21.5374 101.125 21.4981 101.934 21.533 104.485L21.5787 107.814H22.1664H22.7542L22.8381 105.475L22.9221 103.137L23.5777 104.306C23.9382 104.949 24.5483 106.001 24.9333 106.644C25.6319 107.811 25.6351 107.814 26.3768 107.814H27.1203L27.1658 104.427C27.2151 100.749 27.2078 100.719 26.285 100.95C25.8721 101.053 25.87 101.063 25.8235 103.348L25.7768 105.642L25.3339 104.891C25.0902 104.477 24.6841 103.763 24.4316 103.304C23.5824 101.76 23.2917 101.301 23.0321 101.091C22.7412 100.856 22.0233 100.818 21.7009 101.022ZM30.4697 101.096C30.4244 101.213 30.4079 102.773 30.4331 104.561L30.4788 107.814L31.1085 107.865L31.7383 107.917V105.619C31.7383 103.182 31.86 102.968 32.2963 104.64C32.44 105.191 32.6953 106.131 32.8634 106.728L33.169 107.814L33.8592 107.864C34.4056 107.904 34.568 107.851 34.6392 107.613C34.6888 107.448 34.9594 106.458 35.2409 105.414C35.5223 104.369 35.7939 103.473 35.8444 103.423C35.8951 103.373 35.9364 104.359 35.9364 105.614V107.897H36.6082H37.2799V104.491C37.2799 100.746 37.3192 100.879 36.2166 100.885C35.4555 100.888 35.2543 101.072 35.005 101.989C34.8835 102.437 34.6226 103.404 34.4251 104.139C34.0379 105.58 33.8392 105.937 33.6958 105.45C32.986 103.039 32.5779 101.537 32.5779 101.334C32.5779 101.009 32.2189 100.882 31.2995 100.882C30.8474 100.882 30.5196 100.966 30.4697 101.096ZM38.4973 100.993C38.2243 101.102 38.2077 105.096 38.4758 106.155C38.9464 108.013 41.4346 108.634 42.8337 107.243C43.4898 106.59 43.6591 105.775 43.6601 103.265L43.6611 101.055L43.2416 100.951C42.3632 100.731 42.3179 100.849 42.3152 103.341C42.3125 105.877 42.1818 106.357 41.4275 106.606C40.8107 106.81 39.99 106.477 39.7847 105.939C39.7 105.718 39.6308 104.535 39.6308 103.311C39.6308 101.435 39.589 101.069 39.3652 100.983C39.0629 100.868 38.801 100.871 38.4973 100.993ZM44.7436 101.096C44.6982 101.213 44.6818 102.773 44.707 104.561L44.7526 107.814H45.3404H45.9281L46.0121 106.517C46.0583 105.804 46.1526 105.222 46.222 105.223C46.2914 105.224 46.7446 105.226 47.2296 105.227C48.4757 105.231 48.6007 105.354 48.6989 106.68L48.7829 107.814L49.4348 107.867L50.0868 107.92L50.0086 106.574C49.953 105.62 49.8462 105.137 49.6412 104.911C49.3661 104.609 49.3728 104.571 49.7812 104.133C50.6988 103.148 50.0957 101.469 48.6937 101.104C47.6262 100.826 44.8499 100.82 44.7436 101.096ZM51.3298 100.993C51.2682 101.055 51.2178 102.633 51.2178 104.501V107.897H51.7982H52.3785L52.4279 106.686L52.4773 105.475L53.6614 105.392C55.5949 105.255 56.3512 104.536 56.2195 102.957C56.0876 101.373 55.2761 100.905 52.6313 100.889C51.977 100.885 51.3913 100.932 51.3298 100.993ZM57.1702 101.096C57.1248 101.213 57.1084 102.773 57.1336 104.561L57.1793 107.814H57.767H58.3547L58.4033 106.352L58.4518 104.891H59.8661H61.2804L61.3289 106.352L61.3774 107.814H61.9652H62.5529L62.5984 104.435L62.6438 101.057L62.2209 100.952C61.4075 100.749 61.2935 100.924 61.2935 102.38V103.721H59.8661H58.4387V102.403C58.4387 101.355 58.3843 101.064 58.1731 100.983C57.7331 100.816 57.2578 100.869 57.1702 101.096ZM63.2384 101.027C63.1986 101.091 63.6314 101.968 64.2005 102.975C65.2109 104.764 65.2369 104.842 65.3214 106.31L65.4077 107.814H65.9954H66.5832L66.6671 106.394C66.737 105.212 66.8285 104.856 67.2129 104.268C67.467 103.879 67.6747 103.52 67.6747 103.469C67.6747 103.419 67.9729 102.854 68.3373 102.214L69 101.051L68.5892 100.948C67.7651 100.743 67.4534 100.989 66.7718 102.387C66.4137 103.121 66.0683 103.721 66.004 103.721C65.9397 103.721 65.6514 103.214 65.3634 102.594C65.0754 101.974 64.7681 101.363 64.6804 101.236C64.5128 100.993 63.363 100.826 63.2384 101.027ZM48.603 102.481C48.929 102.805 48.9401 103.224 48.6333 103.641C48.4516 103.889 48.1344 103.974 47.2059 104.026L46.0121 104.093V103.156V102.218H47.1757C48.0094 102.218 48.4138 102.293 48.603 102.481ZM54.5875 102.391C54.8063 102.508 54.9114 102.739 54.9097 103.101C54.9053 103.988 54.7109 104.135 53.5342 104.137L52.4773 104.139L52.4247 103.41C52.3958 103.009 52.4123 102.577 52.4615 102.45C52.569 102.171 54.0949 102.129 54.5875 102.391ZM28.2118 107.155V107.917L28.8415 107.865C29.4528 107.815 29.4728 107.793 29.5228 107.104L29.5745 106.394H28.8931H28.2118V107.155Z" fill="white"/>
</svg>
